SplineFontDB: 3.2
FontName: KawaiiMonoRegular
FullName: KawaiiMonoRegular
FamilyName: KawaiiMono
Weight: Regular
Copyright: Copyright (c) 2023, Qwreey
UComments: "2023-1-6: Created with FontForge (http://fontforge.org)"
Version: 001.000
ItalicAngle: 0
UnderlinePosition: -100
UnderlineWidth: 50
Ascent: 800
Descent: 200
InvalidEm: 0
LayerCount: 2
Layer: 0 0 "+tLe6dAAA" 1
Layer: 1 0 "+xV66dAAA" 0
XUID: [1021 168 1591860576 30271]
FSType: 0
OS2Version: 0
OS2_WeightWidthSlopeOnly: 0
OS2_UseTypoMetrics: 1
CreationTime: 1673013936
ModificationTime: 1674247544
PfmFamily: 17
TTFWeight: 400
TTFWidth: 5
LineGap: 90
VLineGap: 0
Panose: 2 0 4 9 2 0 0 9 0 4
OS2TypoAscent: 0
OS2TypoAOffset: 1
OS2TypoDescent: 0
OS2TypoDOffset: 1
OS2TypoLinegap: 90
OS2WinAscent: 0
OS2WinAOffset: 1
OS2WinDescent: 0
OS2WinDOffset: 1
HheadAscent: 0
HheadAOffset: 1
HheadDescent: 0
HheadDOffset: 1
OS2Vendor: 'PfEd'
OS2CodePages: 2000009f.dfd70000
OS2UnicodeRanges: a00002e7.0000f8fb.00000000.00000000
Lookup: 4 0 1 "liga standard lookup" { "liga standard lookup-1"  } ['liga' ('DFLT' <'dflt' > 'cyrl' <'dflt' > 'grek' <'dflt' > 'latn' <'CAT ' 'ROM ' 'dflt' > ) ]
Lookup: 1 0 0 "InputMono-Regular-'locl' Localized Forms in Latin lookup 0" { "InputMono-Regular-'locl' Localized Forms in Latin lookup 0 subtable"  } ['locl' ('latn' <'ROM ' > ) ]
Lookup: 6 0 0 "InputMono-Regular-'locl' Localized Forms in Latin lookup 1" { "InputMono-Regular-'locl' Localized Forms in Latin lookup 1 contextual 0"  "InputMono-Regular-'locl' Localized Forms in Latin lookup 1 contextual 1"  } ['locl' ('latn' <'CAT ' > ) ]
Lookup: 1 0 0 "InputMono-Regular-'sups' Superscript in Latin lookup 2" { "InputMono-Regular-'sups' Superscript in Latin lookup 2 subtable"  } ['sups' ('DFLT' <'dflt' > 'latn' <'CAT ' 'ROM ' 'dflt' > ) ]

StartChar: A
Encoding: 256 65 0
Width: 550
Flags: HMW
HStem: -170 0 -20 0 20 0 645 90 690 0 160 0 100 0 500 80
VStem: 82 386 235 80
LayerCount: 2
Fore
SplineSet
315 730 m 1053xe040
387.243164062 -0.1962890625 m 1045
315 730 m 1029
315 730 m 1029
235 730 m 1029
468 0 m 5xe080
 388 0 l 5
 355.965860994 150 l 5
 194.407830252 150 l 5
 162 0 l 5
 82 0 l 5xe080
 235 730 l 5
 315 730 l 5xe040
 468 0 l 5xe080
338.880986857 230 m 5
 275.655273438 526.0546875 l 5
 211.692006386 230 l 5
 338.880986857 230 l 5
EndSplineSet
Validated: 1
EndChar

StartChar: B
Encoding: 257 66 1
Width: 550
Flags: HW
HStem: 0 80<160 312.065> 326 78<202 311.399> 650 80<160 312.217>
VStem: 362 78<450.653 603.971> 390 78<144.76 283.684>
CounterMasks: 1 e0
LayerCount: 2
Fore
SplineSet
160 326 m 1xe8
 202 326 l 1
 332.65625 326 390 299.65625 390 219 c 0
 390 128.34375 382.65625 80 202 80 c 1
 160 80 l 1
 160 326 l 1xe8
394.235351562 374.795898438 m 1
 436 427 440 478.969726562 440 529 c 0xf0
 440 671 384 730 206 730 c 4
 82 730 l 1
 82 0 l 1
 240 0 l 0
 408 2 468 45.998046875 468 219 c 0
 468 292.991000194 435 337 394.235351562 374.795898438 c 1
160 650 m 1
 202 650 l 5
 342.65625 650 359 609.65625 359 529 c 0
 359 448.34375 322.65625 404 202 404 c 1
 160 404 l 1
 160 650 l 1
EndSplineSet
Validated: 9
EndChar

StartChar: C
Encoding: 258 67 2
Width: 550
Flags: HW
HStem: 0 78<212.438 341.555> 651 78<212.438 341.555>
VStem: 82 81<125.254 182 547 603.746> 387 80.9893<126.249 199 530 602.751>
LayerCount: 2
Fore
SplineSet
82 170 m 16
 82 65 195.161132812 0 280 0 c 0
 385.7890625 0 467.991210938 89 467.989257812 199 c 0
 387 199 l 0
 387 148 353.254882812 78 281 78 c 0
 224 78 163 123 163 182 c 8
 163 274 163 455 163 547 c 16
 163 606 224 651 281 651 c 0
 353.254882812 651 387 581 387 530 c 4
 467.989257812 530 l 4
 467.991210938 640 385.7890625 729 280 729 c 0
 195.161132812 729 82 664 82 559 c 8
 82 458 82 271 82 170 c 16
EndSplineSet
Validated: 41
EndChar

StartChar: D
Encoding: 259 68 3
Width: 550
Flags: HW
HStem: 0 80<163 345.904> 650 80<163 341.791>
VStem: 82 81<80 650> 387 81<119.175 604.325>
LayerCount: 2
Fore
SplineSet
163 650 m 1
 163 80 l 1
 275 80 l 0
 336.82421875 80 387 121.6640625 387 173 c 0
 387 546 l 0
 387 605 332 650 275 650 c 0
 163 650 l 1
82 0 m 1
 82 730 l 1
 276 730 l 0
 360.838867188 730 468 663 468 558 c 0
 468 173 l 0
 468 67 360.838867188 0 276 0 c 0
 82 0 l 1
EndSplineSet
Validated: 1
EndChar

StartChar: E
Encoding: 260 69 4
Width: 550
Flags: HW
HStem: 0 80<162 468> 324 80<162 468> 650 80<162 468>
VStem: 82 80<80 324 404 650>
LayerCount: 2
Fore
SplineSet
162 404 m 5
 468 404 l 5
 468 324 l 5
 162 324 l 5
 162 80 l 5
 468 80 l 5
 468 0 l 5
 82 0 l 5
 82 730 l 5
 468 730 l 5
 468 650 l 5
 162 650 l 5
 162 404 l 5
EndSplineSet
Validated: 1
EndChar

StartChar: F
Encoding: 261 70 5
Width: 550
Flags: HW
HStem: 0 21G<82 162> 324 80<162 468> 650 80<162 468>
VStem: 82 80<0 324 404 650>
LayerCount: 2
Fore
SplineSet
82 0 m 17
 82 730 l 1
 468 730 l 1
 468 650 l 1
 162 650 l 1
 162 404 l 1
 468 404 l 1
 468 324 l 1
 162 324 l 1
 162 0 l 9
 82 0 l 17
EndSplineSet
Validated: 1
EndChar

StartChar: G
Encoding: 262 71 6
Width: 550
Flags: HW
HStem: 0 80<204.544 346.067> 251 81<247 387> 650 80<208.479 341.942>
VStem: 82 81<119.175 604.325> 387 81<119.175 251 511 604.325>
LayerCount: 2
Fore
SplineSet
247 332 m 29
 468 332 l 21
 468 173 l 4
 468 67 360.838867188 0 276 0 c 4
 190.161132812 0 82 67 82 173 c 4
 82 558 l 4
 82 663 190.161132812 730 276 730 c 4
 360.838867188 730 468 663 468 558 c 4
 468 511 l 13
 387 511 l 21
 387 546 l 4
 387 605 332 650 275 650 c 4
 217 650 163 605 163 546 c 4
 163 173 l 4
 163 121.6640625 213.17578125 80 275 80 c 4
 336.82421875 80 387 121.6640625 387 173 c 4
 387 251 l 13
 247 251 l 29
 247 332 l 29
EndSplineSet
Validated: 1
EndChar

StartChar: H
Encoding: 263 72 7
Width: 550
Flags: HW
LayerCount: 2
Fore
SplineSet
388 404 m 1
 162 404 l 1
 162 730 l 9
 82 730 l 17
 82 0 l 9
 162 0 l 17
 162 324 l 1
 388 324 l 1
 388 0 l 9
 468 0 l 17
 468 730 l 9
 388 730 l 17
 388 404 l 1
EndSplineSet
Validated: 9
EndChar

StartChar: I
Encoding: 264 73 8
Width: 550
Flags: W
VStem: 112 326
LayerCount: 2
Fore
SplineSet
112 0 m 1
 438 0 l 1
 438 80 l 1
 315 80 l 1
 315 650 l 1
 438 650 l 1
 438 730 l 1
 112 730 l 1
 112 650 l 1
 235 650 l 1
 235 80 l 1
 112 80 l 1
 112 0 l 1
EndSplineSet
Validated: 9
EndChar

StartChar: J
Encoding: 265 74 9
Width: 550
Flags: HW
HStem: 0 80<206.009 352.852> 710 20G<389 469>
VStem: 82 80<127.488 236> 389 80<117.993 730>
LayerCount: 2
Fore
SplineSet
469 730 m 21
 469 190 l 5
 468 76 412 0 285 0 c 4
 136 0 82 77 82 236 c 5
 162 236 l 5
 162 162 172 80 285 80 c 4
 387 80 389 170 389 216 c 5
 389 730 l 13
 469 730 l 21
EndSplineSet
Validated: 1
EndChar

StartChar: K
Encoding: 266 75 10
Width: 550
Flags: HW
LayerCount: 2
Back
SplineSet
343 730 m 1
 443 730 l 1
 443 -120 l 5
 343 -120 l 5
 343 730 l 1
EndSplineSet
Fore
SplineSet
203 324 m 1
 368 0 l 1
 468 0 l 1
 259.045898438 410.13671875 l 1
 468 730 l 1
 368 730 l 1
 162 430 l 1
 162 730 l 9
 82 730 l 17
 82 0 l 1
 162 0 l 1
 162.927734375 263 l 1
 203 324 l 1
EndSplineSet
Validated: 9
EndChar

StartChar: L
Encoding: 267 76 11
Width: 550
Flags: HW
LayerCount: 2
Fore
SplineSet
82 730 m 21
 82 0 l 5
 468 0 l 5
 468 80 l 5
 162 80 l 5
 162 730 l 13
 82 730 l 21
EndSplineSet
Validated: 9
EndChar

StartChar: M
Encoding: 268 77 12
Width: 550
Flags: HW
HStem: 0 21G<36 116 434 514> 710 20G<36 122.652 427.403 514>
VStem: 36 80<0 487> 434 80<0 487>
LayerCount: 2
Fore
SplineSet
36 0 m 1029
35.2431640625 730.196289062 m 1045
251 80 m 1029
301 80 m 1029
301 80 m 1029
433.243164062 730.196289062 m 1045
301 80 m 1053
116 0 m 5
 36 0 l 5
 36 730 l 5
 116 730 l 5
 275.655273438 249.9453125 l 5
 434 730 l 5
 514 730 l 5
 514 0 l 5
 434 0 l 5
 434 487 l 5
 301 80 l 5
 251 80 l 5
 116 487 l 5
 116 0 l 5
EndSplineSet
Validated: 1
EndChar

StartChar: N
Encoding: 269 78 13
Width: 550
Flags: HW
HStem: 0 21G<82 162 379.423 468> 710 20G<82 170.577 388 468>
VStem: 82 80<0 527> 388 80<203 730>
LayerCount: 2
Fore
SplineSet
162 527 m 9
 162 0 l 1
 82 0 l 17
 82 730 l 25
 162 730 l 17
 388 203 l 9
 388 730 l 1
 468 730 l 17
 468 0 l 25
 388 0 l 17
 162 527 l 9
162 527 m 1041
162 527 m 1025
162 527 m 1025
162 730 m 1025
EndSplineSet
Validated: 1
EndChar

StartChar: O
Encoding: 270 79 14
Width: 550
Flags: W
HStem: 0 80<204.544 346.067> 650 80<208.479 341.942>
VStem: 82 81<119.175 173 546 604.325> 387 81<119.175 173 546 604.325>
LayerCount: 2
Back
SplineSet
57 730 m 5
 443 730 l 5
 443 0 l 5
 57 0 l 5
 57 730 l 5
EndSplineSet
Fore
SplineSet
163 173 m 0
 163 546 l 0
 163 605 217 650 275 650 c 0
 332 650 387 605 387 546 c 0
 387 173 l 0
 387 121.6640625 336.82421875 80 275 80 c 0
 213.17578125 80 163 121.6640625 163 173 c 0
82 173 m 0
 82 67 190.161132812 0 276 0 c 0
 360.838867188 0 468 67 468 173 c 0
 468 558 l 0
 468 663 360.838867188 730 276 730 c 0
 190.161132812 730 82 663 82 558 c 0
 82 173 l 0
EndSplineSet
Validated: 9
EndChar

StartChar: P
Encoding: 271 80 15
Width: 550
Flags: HW
HStem: 0 21G<82 160> 310 80<160 312.065> 650 80<160 326.961>
VStem: 82 78<0 310 390 650> 390 78<454.76 597.673>
LayerCount: 2
Fore
SplineSet
160 650 m 1
 160 390 l 1
 202 390 l 1
 332.65625 390 390 448.34375 390 529 c 0
 390 609.65625 332.65625 650 202 650 c 1
 160 650 l 1
160 310 m 0
 160 0 l 1
 82 0 l 1
 82 730 l 1
 180 730 l 0
 387 730 468 678 468 529 c 0
 468 365.998046875 383 312 160 310 c 0
EndSplineSet
Validated: 1
EndChar

StartChar: Q
Encoding: 272 81 16
Width: 550
Flags: HW
HStem: 0 80<204.544 314.368> 650 80<208.479 341.942>
VStem: 82 81<119.175 604.325> 387 81<147.228 604.325>
LayerCount: 2
Back
SplineSet
340.9609375 0 m 21
 227.219726562 194.984375 l 5
 304.845703125 238.517578125 l 5
 443 0 l 5
 340.9609375 0 l 21
EndSplineSet
Fore
SplineSet
382.501953125 146.838867188 m 1
 385.429504991 155.138259554 387 163.917765602 387 173 c 0
 387 546 l 0
 387 605 332 650 275 650 c 0
 217 650 163 605 163 546 c 0
 163 173 l 0
 163 121.6640625 213.17578125 80 275 80 c 0
 289.184266973 80 302.506835938 84 315 88 c 1
 232.219726562 229.984375 l 5
 309.845703125 273.517578125 l 5
 382.501953125 146.838867188 l 1
355.532226562 17.6162109375 m 1
 329.368164062 6.1298828125 301.662879302 0 276 0 c 0
 190.161132812 0 82 67 82 173 c 0
 82 558 l 0
 82 663 190.161132812 730 276 730 c 0
 360.838867188 730 468 663 468 558 c 0
 468 173 l 0
 468 132.085837506 452.034853917 96.9819971024 427.55078125 69.298828125 c 1
 468 0 l 1
 365.9609375 0 l 1
 355.532226562 17.6162109375 l 1
EndSplineSet
Validated: 1
EndChar

StartChar: R
Encoding: 273 82 17
Width: 550
Flags: HW
HStem: 327.938 75.0615<234.459 331.805> 650 80<176 335.56>
VStem: 390 78<452.161 604.192>
LayerCount: 2
Fore
SplineSet
160 650 m 1
 212 650 l 5
 372.65625 650 390 600.65625 390 530 c 0
 390 459.34375 362.65625 403 212 403 c 1
 160 403 l 1
 160 650 l 1
234.458984375 327.938476562 m 17
 406 331 468 408.104492188 468 532 c 0
 468 631 459 730 206 730 c 0
 82 730 l 1
 82 0 l 1
 160 0 l 1
 160 285 l 0
 362 0 l 9
 468 0 l 25
 234.458984375 327.938476562 l 17
EndSplineSet
Validated: 9
EndChar

StartChar: S
Encoding: 274 83 18
Width: 550
Flags: HW
HStem: 0 80<209.663 340.05> 650 80<211.085 340.034>
VStem: 82 80<129.91 196 451.957 596.309> 388 80<129.515 270.06> 398 78<558.487 586.84>
LayerCount: 2
Back
SplineSet
358.999023438 514 m 1
 359 586.984375 317.000976562 650 247 650 c 0
 175.999023438 650 133 586.984375 133 514 c 0
 133 341.307617188 439 483.721679688 439 216 c 4
 439 81 383.674804688 0 246 0 c 4
 109.325195312 0 53 81 53 216 c 5
 133 216 l 4
 133 133.015625 174.999023438 80 245 80 c 4
 316.000976562 80 359 133.015625 359 216 c 4
 359 393.721679688 53 256 53 514 c 0
 53 639 108.325195312 730 246 730 c 0
 331.55859375 730 389.522460938 688.338867188 418 631 c 1
 419.072265625 628.840820312 357.999023438 516.219726562 358.999023438 514 c 1
EndSplineSet
Fore
SplineSet
468 216 m 5xf0
 468 81 412.674804688 0 275 0 c 4
 138.325195312 0 82 91 82 196 c 5
 162 216 l 4
 162 133.015625 203.999023438 80 274 80 c 4
 345.000976562 80 388 133.015625 388 216 c 5xf0
 387 376 82 260 82 514 c 4
 82 639 137.325195312 730 275 730 c 4
 360.558809445 730 456 676 476 561 c 5
 398 533 l 5xe8
 384 600 338 650 276 650 c 4
 204.999023438 650 162 586.984375 162 514 c 4
 162 342 468 460 468 216 c 5xf0
EndSplineSet
Validated: 1
EndChar

StartChar: T
Encoding: 275 84 19
Width: 550
Flags: HW
LayerCount: 2
Fore
SplineSet
82 650 m 21
 235 650 l 5
 235 0 l 9
 315 0 l 17
 315 650 l 5
 468 650 l 5
 468 730 l 5
 82 730 l 13
 82 650 l 21
EndSplineSet
Validated: 9
EndChar

StartChar: U
Encoding: 276 85 20
Width: 550
Flags: HW
HStem: 0 80<204.544 346.067>
VStem: 82 81<119.175 173> 387 81<119.175 173>
LayerCount: 2
Fore
SplineSet
82 730 m 17
 82 173 l 0
 82 67 190.161132812 0 276 0 c 0
 360.838867188 0 468 67 468 173 c 0
 468 730 l 9
 387 730 l 17
 387 173 l 0
 387 121.6640625 336.82421875 80 275 80 c 0
 213.17578125 80 163 121.6640625 163 173 c 0
 163 730 l 9
 82 730 l 17
EndSplineSet
Validated: 9
EndChar

StartChar: V
Encoding: 277 86 21
Width: 550
Flags: HW
HStem: 0 21G<226.918 325.027> 710 20G<82 166.371 383.68 468>
LayerCount: 2
Fore
SplineSet
231 0 m 1025
321 0 m 1025
321 0 m 1025
387.243164062 730.196289062 m 1041
321 0 m 1049
82 730 m 1
 162 730 l 1
 275.655273438 209.9453125 l 5
 388 730 l 1
 468 730 l 1
 321 0 l 1
 231 0 l 1
 82 730 l 1
EndSplineSet
Validated: 1
EndChar

StartChar: W
Encoding: 278 87 22
Width: 550
Flags: HW
VStem: 245 70<617.118 650>
LayerCount: 2
Fore
SplineSet
36 730 m 1029
108.243164062 -0.1962890625 m 1045
245 650 m 1029
315 650 m 1029
315 650 m 1029
363.243164062 -0.1962890625 m 1045
315 650 m 1053
116 730 m 5
 36 730 l 5
 109 0 l 5
 189 0 l 5
 275.655273438 376.0546875 l 5
 364 0 l 5
 444 0 l 5
 514 730 l 5
 434 730 l 5
 384 293 l 5
 315 650 l 5
 245 650 l 5
 169 293 l 5
 116 730 l 5
EndSplineSet
Validated: 9
EndChar

StartChar: X
Encoding: 279 88 23
Width: 550
Flags: HW
HStem: 710 20G<82 181.469 368.531 468>
LayerCount: 2
Fore
SplineSet
346.106445312 366 m 5
 468 2 l 1
 375 2 l 1
 275 311.146484375 l 1
 175 2 l 1
 82 2 l 1
 203.052734375 366 l 1
 82 730 l 1
 175 730 l 1
 275 420.853515625 l 1
 375 730 l 1
 468 730 l 1
 346.106445312 366 l 5
EndSplineSet
Validated: 1
EndChar

StartChar: Y
Encoding: 280 89 24
Width: 550
Flags: HW
HStem: 0 21G<226 323> 710 20G<82 181.469 368.531 468>
VStem: 226 97<0 297>
LayerCount: 2
Fore
SplineSet
226 297 m 5
 82 730 l 5
 175 730 l 5
 275 420.853515625 l 5
 375 730 l 5
 468 730 l 5
 323 297 l 5
 323 0 l 5
 226 0 l 5
 226 297 l 5
EndSplineSet
Validated: 1
EndChar

StartChar: Z
Encoding: 281 90 25
Width: 550
Flags: HW
HStem: 0 80<185 468> 650 80<82 365>
LayerCount: 2
Fore
SplineSet
185 80 m 13
 468 80 l 5
 468 0 l 21
 82 0 l 29
 82 80 l 21
 365 650 l 13
 82 650 l 5
 82 730 l 21
 468 730 l 29
 468 650 l 21
 185 80 l 13
185 80 m 1045
185 80 m 1029
185 80 m 1029
82 80 m 1029
EndSplineSet
Validated: 1
EndChar

StartChar: bracketleft
Encoding: 282 91 26
Width: 550
Flags: HW
HStem: -120 90<232 398> 640 90<232 398>
VStem: 142 256<-120 -30 640 730> 142 90<-30 640>
LayerCount: 2
Fore
SplineSet
232 -30 m 5xd0
 398 -30 l 5
 398 -120 l 5
 142 -120 l 5
 142 730 l 5
 398 730 l 5
 398 640 l 5xe0
 232 640 l 5
 232 -30 l 5xd0
EndSplineSet
Validated: 1
EndChar

StartChar: backslash
Encoding: 283 92 27
Width: 550
Flags: HW
HStem: 0 21G<361.137 468> 710 20G<82 188.863>
LayerCount: 2
Fore
SplineSet
369 0 m 5
 82 730 l 5
 181 730 l 5
 468 0 l 5
 369 0 l 5
EndSplineSet
Validated: 1
EndChar

StartChar: bracketright
Encoding: 284 93 28
Width: 550
Flags: HW
VStem: 147 256
LayerCount: 2
Fore
SplineSet
313 -30 m 5
 147 -30 l 5
 147 -120 l 5
 403 -120 l 5
 403 730 l 5
 147 730 l 5
 147 640 l 5
 313 640 l 5
 313 -30 l 5
EndSplineSet
Validated: 9
EndChar

StartChar: asciicircum
Encoding: 285 94 29
Width: 550
Flags: HW
LayerCount: 2
Fore
SplineSet
275 596 m 29
 379 369 l 1
 468 369 l 1
 275 800 l 1
 82 369 l 9
 171 369 l 1
 275 596 l 29
EndSplineSet
Validated: 9
EndChar

StartChar: underscore
Encoding: 286 95 30
Width: 550
Flags: HW
HStem: 0 100
LayerCount: 2
Fore
SplineSet
510 100 m 25
 40 100 l 25
 40 0 l 25
 510 0 l 25
 510 100 l 25
EndSplineSet
Validated: 9
EndChar

StartChar: grave
Encoding: 287 96 31
Width: 550
Flags: HW
HStem: 526 274
VStem: 126.5 297
LayerCount: 2
Fore
SplineSet
126.5 800 m 21
 272.5 800 l 5
 423.5 526 l 5
 317.5 526 l 5
 126.5 800 l 21
EndSplineSet
Validated: 1
EndChar

StartChar: a
Encoding: 288 97 32
Width: 550
Flags: HW
HStem: 0 78<203.695 360.705> 246 60<193.944 367.471> 451.286 74.7139<194.818 352.58>
VStem: 82 81<115.376 218.433 370 422.073> 387 80.9785<0 40 103.361 225.954 306 419.387>
LayerCount: 2
Fore
SplineSet
163 158 m 0
 163 122 214 78 271 78 c 0
 320.254882812 78 350 86 389 122 c 0
 388 209 l 0
 362 240 293 246 257 246 c 0
 198.78515625 246 163 212 163 158 c 0
82 171 m 0
 82 222.513671875 109.102360264 287.495581966 178 314 c 0
 261.57421875 346.150390625 371 306 387 306 c 0
 387 358 l 0
 387 394 378 408 359 426 c 0
 335.894624129 447.889303457 296.025390625 451.368164062 275 451.286132812 c 0
 202 451 162 416 162 370 c 1
 82 370 l 0
 82 405 101.940211066 456.373850842 142 488 c 0
 161 503 185 526 275 526 c 0
 378.018554688 526 410.04873082 494.119966297 430 475 c 0
 454 452 467.780273438 418.7734375 467.978515625 358 c 0
 468 0 l 1
 387 0 l 1
 386.928710938 40 l 0
 386.928710938 40 351 0 268 0 c 0
 185.161132812 0 82 52 82 171 c 0
EndSplineSet
EndChar

StartChar: b
Encoding: 289 98 33
Width: 550
Flags: HW
HStem: 0 21G<82.0209 163> 21 60<183.422 356.056> 450 78<191.031 347.306> 710 20G<82 163>
VStem: 82.0215 80.9785<0 21 102.045 423.429 488 730> 387 81<109.131 411.514>
LayerCount: 2
Fore
SplineSet
163 406 m 0x7c
 163 118 l 0
 189 87 257 81 293 81 c 0
 351.21484375 81 387 116 387 166 c 0
 387 353 l 0
 387 412 336 450 279 450 c 0
 229.745117188 450 202 442 163 406 c 0x7c
82.021484375 0 m 17xbc
 82 730 l 5
 163 730 l 5
 163.071289062 488 l 0
 163.071289062 488 199 528 282 528 c 0
 364.838867188 528 468 454 468 383 c 0
 468 148 l 0
 468 96.486328125 440.897460938 39.5048828125 372 13 c 0
 288.42578125 -19.150390625 179 21 163 21 c 0
 163 0 l 9
 82.021484375 0 l 17xbc
EndSplineSet
Validated: 33
EndChar

StartChar: c
Encoding: 290 99 34
Width: 550
Flags: HW
HStem: 0 78<203.794 342.627> 451 78<212.438 342.627>
VStem: 82 81<115.378 170 347 403.746> 387 80.9893<123.697 169 360 405.303>
LayerCount: 2
Fore
SplineSet
82 170 m 4
 82 65 195.161132812 0 280 0 c 4
 385.7890625 0 467.991210938 89 467.989257812 169 c 4
 387 169 l 4
 387 148 353.254882812 78 281 78 c 4
 224 78 163 109 163 168 c 4
 163 347 l 4
 163 406 224 451 281 451 c 4
 353.254882812 451 387 381 387 360 c 4
 467.989257812 360 l 4
 467.991210938 440 385.7890625 529 280 529 c 4
 195.161132812 529 82 464 82 359 c 4
 82 170 l 4
EndSplineSet
Validated: 41
EndChar

StartChar: d
Encoding: 291 100 35
Width: 550
Flags: HW
HStem: 21 60<193.944 366.578> 450 78<202.694 359.861>
VStem: 82 81<109.131 166 353 411.514> 387 80.9785<102.045 118 407 424.336>
LayerCount: 2
Fore
SplineSet
387 407 m 0
 387 118 l 0
 361 87 293 81 257 81 c 0
 198.78515625 81 163 116 163 166 c 0
 163 353 l 0
 163 412 214 450 271 450 c 0
 320.254882812 450 348 443 387 407 c 0
467.978515625 0 m 17
 468 730 l 5
 387 730 l 5
 386.928710938 488 l 0
 386.928710938 488 351 528 268 528 c 0
 185.161132812 528 82 454 82 383 c 0
 82 148 l 0
 82 96.486328125 109.102539062 39.5048828125 178 13 c 0
 261.57421875 -19.150390625 371 21 387 21 c 0
 387 0 l 9
 467.978515625 0 l 17
EndSplineSet
Validated: 41
EndChar

StartChar: e
Encoding: 292 101 36
Width: 550
Flags: HW
HStem: 0 78<212.438 350.027> 451 78<212.438 342.627>
VStem: 82 81<125.254 182 347 403.746> 387 80.9893<112.705 153 360 405.303>
LayerCount: 2
Fore
SplineSet
387 360 m 0
 387 300 l 1
 163 300 l 1
 163 347 l 0
 163 406 224 451 281 451 c 0
 353.254882812 451 387 381 387 360 c 0
467.989257812 360 m 1
 467.991210938 440 385.7890625 529 280 529 c 0
 195.161132812 529 82 464 82 359 c 8
 82 258 82 271 82 170 c 16
 82 65 195.161132812 0 280 0 c 0
 385.7890625 0 467.991210938 51 467.989257812 131 c 0
 387 131 l 0
 387 110 353.254882812 78 281 78 c 0
 224 78 163 123 163 182 c 0
 163 220 l 1
 468 220 l 1
 467.989257812 360 l 1
EndSplineSet
Validated: 41
EndChar

StartChar: f
Encoding: 293 102 37
Width: 550
Flags: HW
HStem: 0 21G<235 315> 446 80<82 235 315 468>
VStem: 235 80<0 446>
LayerCount: 2
Fore
SplineSet
466 645 m 2
 444 645 368.620117188 653.365234375 341 627 c 0
 319 606 315 526 315 526 c 2
 468 526 l 1
 468 446 l 1
 315 446 l 1
 315 0 l 1
 235 0 l 1
 235 446 l 1
 82 446 l 1
 82 526 l 1
 235 526 l 2
 235 526 237 650 289 693 c 0
 355.704305547 748.159329587 466 725 466 725 c 1
 468 725 l 1
 468 645 l 1
 466 645 l 2
EndSplineSet
EndChar

StartChar: g
Encoding: 294 103 38
Width: 550
Flags: HW
HStem: -170 76.7139<191.504 353.375> 72 60<193.944 367.471> 448 78<202.694 360.705>
VStem: 82 81<-65.1367 0 160.131 217 351 409.514> 387 80.9785<-60.5301 0 152.046 169 404 422.639>
LayerCount: 2
Fore
SplineSet
389 404 m 5
 388 169 l 5
 362 138 293 132 257 132 c 4
 198.78515625 132 163 167 163 217 c 6
 163 351 l 6
 163 410 214 448 271 448 c 4
 320.254882812 448 350 440 389 404 c 5
387 72 m 5
 387 0 l 6
 387 -36 375.469726562 -53.5888671875 359 -68 c 4
 333.508789062 -90.3046875 296.025390625 -93.2861328125 275 -93.2861328125 c 4
 186 -93.2861328125 168.1796875 -58.2646484375 162 0 c 5
 82 0 l 5
 82 -3 l 5
 82 -3 82 -47 96 -82 c 4
 109.345703125 -115.365234375 141 -170 275 -170 c 4
 378.018554688 -170 410.459960938 -136.540039062 430 -117 c 4
 456.60546875 -90.39453125 467.780273438 -60.7734375 467.978515625 0 c 6
 468 526 l 5
 387 526 l 5
 386.928710938 486 l 5
 386.928710938 486 351 526 268 526 c 4
 185.161132812 526 82 452 82 381 c 6
 82 199 l 6
 82 147.486328125 109.102539062 90.5048828125 178 64 c 4
 261.57421875 31.849609375 371 72 387 72 c 5
EndSplineSet
Validated: 41
EndChar

StartChar: h
Encoding: 295 104 39
Width: 550
Flags: HW
VStem: 82 81<328 388.965 730 730> 387 81<306 398.959>
LayerCount: 2
Fore
SplineSet
387 306 m 2
 387 0 l 1
 468 0 l 1
 468 177 l 0
 468 330 l 2
 468 466 391 530 316 530 c 0
 211.096679688 530 160.965820312 451.006835938 161 456 c 2
 163 730 l 1
 82 730 l 1
 82 426 l 0
 82 0 l 1
 163 0 l 1
 163 328 l 0
 163 366 190.362304688 399.5390625 207 413 c 0
 317 502 387 419 387 306 c 2
EndSplineSet
Validated: 41
EndChar

StartChar: i
Encoding: 296 105 40
Width: 550
Flags: HW
HStem: 0 82<327.293 450.369> 625 129<193.136 336.864>
VStem: 170 190<647.289 732.327> 235 80<93.3497 141>
LayerCount: 2
Fore
SplineSet
170 690 m 0xe0
 170 732 217 754 265 754 c 0
 313 754 360 732 360 690 c 0
 360 648 313 625 265 625 c 0
 217 625 170 648 170 690 c 0xe0
267 32 m 0
 287 11 322 0 348 0 c 0
 373.600585938 0 386.866210938 1.5390625 414 7 c 0
 435.163085938 11.2587890625 468 24 468 24 c 1
 445 98 l 1
 429 93.3544921875 405 82 375 82 c 0
 358.247070312 82 341.4453125 82.2861328125 331 93 c 0
 323.7578125 100.428710938 319.666992188 109.880859375 317.438476562 119 c 0
 315.552734375 126.71484375 315 135.19140625 315 141 c 2
 315 528 l 1
 82 528 l 1
 82 448 l 1
 235 448 l 1
 235 141 l 2xd0
 235 80 249.444335938 50.43359375 267 32 c 0
EndSplineSet
Validated: 9
EndChar

StartChar: j
Encoding: 297 106 41
Width: 550
Flags: HW
HStem: -165 92<213.172 327.382> 448 80<125.5 344.5> 625 129<293.136 436.864>
VStem: 270 190<647.289 732.327> 343.5 80<-48.5196 448>
LayerCount: 2
Fore
SplineSet
270 690 m 4xf0
 270 732 317 754 365 754 c 4
 413 754 460 732 460 690 c 4
 460 648 413 625 365 625 c 4
 317 625 270 648 270 690 c 4xf0
385.5 -126 m 0
 365.5 -147 337 -165 298 -165 c 0
 257.399414062 -165 230.514648438 -159.64453125 190 -139 c 0
 153.170898438 -120.234375 115.5 -92 115.5 -92 c 1
 162.5 -18 l 1
 181 -30 191 -37.5 206 -47 c 0
 230.735351562 -62.666015625 262 -73 281 -73 c 0
 300.083007812 -73 321.966796875 -59.4990234375 330 -49 c 0
 337.771484375 -38.8427734375 343.46875 -22.8056640625 343.5 -7 c 2
 344.5 448 l 1
 125.5 448 l 1
 125.5 528 l 1
 424.5 529 l 1
 423.5 -29 l 2xe8
 423.405273438 -86.9970703125 403.055664062 -107.56640625 385.5 -126 c 0
EndSplineSet
Validated: 1
EndChar

StartChar: k
Encoding: 298 107 42
Width: 550
Flags: HW
LayerCount: 2
Fore
SplineSet
163 288 m 1
 163 730 l 5
 82 730 l 5
 82 0 l 1
 163 0 l 1
 163 159 l 1
 220.772460938 223.571289062 l 1
 370.844726562 0 l 1
 470.844726562 0 l 1
 277 286 l 1
 468.0859375 500.861328125 l 1
 351.000976562 501 l 1
 163 288 l 1
EndSplineSet
Validated: 9
EndChar

StartChar: l
Encoding: 299 108 43
Width: 550
Flags: HW
HStem: 0 82<327.293 450.369>
VStem: 235 80<93.3497 141>
LayerCount: 2
Fore
SplineSet
267 32 m 4
 287 11 322 0 348 0 c 4
 373.600585938 0 386.866210938 1.5390625 414 7 c 4
 435.163085938 11.2587890625 468 24 468 24 c 5
 445 98 l 5
 429 93.3544921875 405 82 375 82 c 4
 358.247070312 82 341.4453125 82.2861328125 331 93 c 4
 323.7578125 100.428710938 319.666992188 109.880859375 317.438476562 119 c 4
 315.552734375 126.71484375 315 135.19140625 315 141 c 6
 315 730 l 5
 82 730 l 5
 82 650 l 5
 235 650 l 5
 235 141 l 6
 235 80 249.444335938 50.43359375 267 32 c 4
EndSplineSet
Validated: 9
EndChar

StartChar: m
Encoding: 300 109 44
Width: 550
Flags: HW
HStem: 454 72<124.709 226.242 324.724 423.953>
VStem: 36 80<413 443.112> 235 80<412 441.719> 434 80<382.513 440.444>
CounterMasks: 1 70
LayerCount: 2
Fore
SplineSet
315 412 m 1025
116 413 m 0
 116 433 146 454 175 454 c 0
 204 454 235 433 235 413 c 0
 235 -0.212890625 l 1
 315 0 l 1
 315 412 l 0
 315 432 345 453 374 453 c 0
 403 453 434 432 434 412.176757812 c 1
 434 -0.212890625 l 1
 514 0 l 17
 514 382.512695312 l 1
 514 475 447 525 374 525 c 0
 338.64453125 525 298.6953125 513.323242188 275.26171875 494.18359375 c 1
 251.365234375 513.934570312 210.935546875 526 175 526 c 0
 156.860351562 526 131.626953125 522.91796875 116 517.326171875 c 1
 116 526 l 1
 36 526 l 17
 36 -0.212890625 l 1
 116 0 l 1
 116 413 l 0
514 382.512695312 m 1025
434 412.176757812 m 1025
434 -0.212890625 m 1025
  Spiro
    434 -0.212891 {
    0 0 z
  EndSpiro
36 -0.212890625 m 1025
  Spiro
    36 -0.212891 {
    0 0 z
  EndSpiro
235 -0.212890625 m 1025
  Spiro
    235 -0.212891 {
    0 0 z
  EndSpiro
EndSplineSet
Validated: 9
EndChar

StartChar: n
Encoding: 301 110 45
Width: 550
Flags: HW
HStem: 446 80<204.318 343.63>
VStem: 82 80<342 404.65> 388 80<341.177 399.163>
LayerCount: 2
Fore
SplineSet
162 490 m 5
 162 526 l 5
 82 526 l 21
 82 -0.212890625 l 5
 162 0 l 5
 162 342 l 4
 162 391 200 446 275 446 c 4
 350 446 388 388 388 341.176757812 c 5
 388 -0.212890625 l 5
 468 0 l 21
 468 342.512695312 l 5
 468 462 366 526 275 526 c 4
 196 526 162 490 162 490 c 5
468 342.512695312 m 1029
388 341.176757812 m 1029
388 -0.212890625 m 1029
  Spiro
    388 -0.212891 {
    0 0 z
  EndSpiro
82 -0.212890625 m 1029
  Spiro
    82 -0.212891 {
    0 0 z
  EndSpiro
EndSplineSet
Validated: 9
EndChar

StartChar: o
Encoding: 302 111 46
Width: 550
Flags: W
HStem: 0 80<204.544 346.067> 449 80<208.479 341.942>
VStem: 82 81<119.175 173 345 403.325> 387 81<119.175 173 345 403.325>
LayerCount: 2
Fore
SplineSet
163 173 m 4
 163 345 l 4
 163 404 217 449 275 449 c 4
 332 449 387 404 387 345 c 4
 387 173 l 4
 387 121.6640625 336.82421875 80 275 80 c 4
 213.17578125 80 163 121.6640625 163 173 c 4
82 173 m 4
 82 67 190.161132812 0 276 0 c 4
 360.838867188 0 468 67 468 173 c 4
 468 357 l 4
 468 462 360.838867188 529 276 529 c 4
 190.161132812 529 82 462 82 357 c 4
 82 173 l 4
EndSplineSet
Validated: 9
EndChar

StartChar: p
Encoding: 303 112 47
Width: 550
Flags: HW
HStem: -170 21G<82.0209 163> 72 60<182.529 356.056> 452 78<189.295 347.306>
VStem: 82.0215 80.9785<-170 72 152.046 426.639 490 530> 387 81<160.131 413.514>
LayerCount: 2
Fore
SplineSet
161 408 m 0
 162 169 l 0
 188 138 257 132 293 132 c 0
 351.21484375 132 387 167 387 217 c 0
 387 355 l 0
 387 414 336 452 279 452 c 0
 229.745117188 452 200 444 161 408 c 0
82.021484375 -170 m 17
 82 530 l 1
 163 530 l 1
 163.071289062 490 l 0
 163.071289062 490 199 530 282 530 c 0
 364.838867188 530 468 456 468 385 c 0
 468 199 l 0
 468 147.486328125 440.897460938 90.5048828125 372 64 c 0
 288.42578125 31.849609375 179 72 163 72 c 0
 163 -170 l 9
 82.021484375 -170 l 17
EndSplineSet
Validated: 33
EndChar

StartChar: q
Encoding: 304 113 48
Width: 550
Flags: HW
HStem: 72 60<193.944 367.471> 452 78<202.694 360.705>
VStem: 82 81<160.131 217 355 413.514> 387 80.9785<152.046 169 408 426.639>
LayerCount: 2
Fore
SplineSet
389 408 m 0
 388 169 l 4
 362 138 293 132 257 132 c 4
 198.78515625 132 163 167 163 217 c 4
 163 355 l 0
 163 414 214 452 271 452 c 0
 320.254882812 452 350 444 389 408 c 0
467.978515625 -170 m 17
 468 530 l 1
 387 530 l 1
 386.928710938 490 l 0
 386.928710938 490 351 530 268 530 c 0
 185.161132812 530 82 456 82 385 c 0
 82 199 l 4
 82 147.486328125 109.102539062 90.5048828125 178 64 c 4
 261.57421875 31.849609375 371 72 387 72 c 4
 387 -170 l 9
 467.978515625 -170 l 17
EndSplineSet
Validated: 41
EndChar

StartChar: r
Encoding: 305 114 49
Width: 550
Flags: HW
HStem: 446 80<211.452 366.763>
VStem: 82 80<342 401.273>
LayerCount: 2
Fore
SplineSet
389 370 m 0
 389 385 366 446 283 446 c 0
 208 446 161.845703125 401 162 340 c 4
 162 0 l 1
 82 -0.212890625 l 1
 82 526 l 9
 162 526 l 1
 162 490 l 1
 162 490 195 526 281 526 c 0
 429.69921875 526 468 421.061523438 468 370 c 0
 389 370 l 0
82 -0.212890625 m 1025
  Spiro
    82 -0.212891 {
    0 0 z
  EndSpiro
EndSplineSet
EndChar

StartChar: s
Encoding: 306 115 50
Width: 550
Flags: HW
HStem: 0 74.7139<201.343 348.542> 220 80<189.85 355.648> 451.286 74.7139<201.458 348.657>
VStem: 82 80<111.69 148 328.03 415.112> 388 80<110.888 191.531 378 414.31>
LayerCount: 2
Fore
SplineSet
277 220 m 4
 190 220 82 252 82 370 c 4
 82 435 138.325287691 526 275 526 c 4
 399.810336989 526 468 439 467.978515625 378 c 5
 387 378 l 5
 387 402 344.999896445 451.576352813 274 451.286132812 c 4
 204 451 162 402.984845005 162 370 c 4
 162 327.307142091 208 300 276 300 c 4
 373.798828125 300 468 252.224318986 468 156 c 4
 468 91 411.674804688 0 275 0 c 4
 150.189453125 0 82 87 82.021484375 148 c 5
 163 148 l 5
 163 124 205 74.423828125 276 74.7138671875 c 4
 346 75 388 123.015625 388 156 c 4
 388 191.801848981 333.036132812 220 277 220 c 4
EndSplineSet
Validated: 33
EndChar

StartChar: t
Encoding: 307 116 51
Width: 550
Flags: HW
HStem: 0 82<327.293 450.369>
VStem: 235 80<93.3497 141>
LayerCount: 2
Fore
SplineSet
267 32 m 0
 287 11 322 0 348 0 c 0
 373.600585938 0 386.866210938 1.5390625 414 7 c 0
 435.163085938 11.2587890625 468 24 468 24 c 1
 445 98 l 1
 429 93.3544921875 405 82 375 82 c 0
 358.247070312 82 341.4453125 82.2861328125 331 93 c 0
 323.7578125 100.428710938 319.666992188 109.880859375 317.438476562 119 c 0
 315.552734375 126.71484375 316 135 315 141 c 2
 315 448 l 1
 467.990546875 448 l 1
 467.9921875 528 l 1
 315 528 l 1
 315 691 l 5
 235 691 l 5
 235 528 l 1
 82 528 l 1
 82 448 l 1
 235 448 l 1
 235 141 l 2
 235 80 249.444335938 50.43359375 267 32 c 0
EndSplineSet
Validated: 9
EndChar

StartChar: u
Encoding: 308 117 52
Width: 550
Flags: HW
HStem: 0 80<204.544 346.296>
VStem: 82 81<119.175 173> 387 81<119.175 173>
LayerCount: 2
Fore
SplineSet
468 0 m 1
 468 526 l 1
 387 526 l 1
 387 173 l 0
 387 121.6640625 336.82421875 80 275 80 c 0
 213.17578125 80 163 121.6640625 163 173 c 0
 163 526 l 1
 82 526 l 1
 82 173 l 0
 82 67 190.161132812 0 276 0 c 0
 312.293941924 0 352.673116832 12.2617755082 387 34.5931482555 c 9
 387 0 l 1
 468 0 l 1
EndSplineSet
Validated: 9
EndChar

StartChar: v
Encoding: 309 118 53
Width: 550
Flags: HW
LayerCount: 2
Fore
SplineSet
162 526 m 29
 82 526 l 21
 235 0 l 13
 315 0 l 5
 468 526 l 29
 388 526 l 29
 275 137 l 29
 162 526 l 29
162 526 m 1053
234.243164062 -0.1962890625 m 1045
162 526 m 1029
162 526 m 1029
82 526 m 1029
EndSplineSet
Validated: 9
EndChar

StartChar: w
Encoding: 310 119 54
Width: 550
Flags: HW
VStem: 235 90<490.682 526>
LayerCount: 2
Fore
SplineSet
36 526 m 1025
128.243164062 -0.1962890625 m 1041
240 526 m 1025
320 526 m 1025
320 526 m 1025
348.243164062 -0.1962890625 m 1041
320 526 m 1049
116 526 m 1
 36 526 l 1
 129 0 l 1
 204 0 l 1
 275.655737705 296.054644809 l 1
 349 0 l 1
 424 0 l 1
 514 526 l 1
 434 526 l 1
 384 193 l 1
 320 526 l 1
 240 526 l 1
 169 193 l 1
 116 526 l 1
EndSplineSet
Validated: 9
EndChar

StartChar: x
Encoding: 311 120 55
Width: 550
Flags: W
LayerCount: 2
Fore
SplineSet
315 269 m 5
 468 526 l 29
 388 526 l 29
 275 340 l 29
 162 526 l 29
 82 526 l 21
 235 269 l 5
 82 2 l 13
 162 2 l 29
 275 188 l 29
 388 2 l 29
 468 2 l 29
 315 269 l 5
162 2 m 1045
162 2 m 1029
162 2 m 1029
82 2 m 1029
EndSplineSet
Validated: 9
EndChar

StartChar: y
Encoding: 312 121 56
Width: 550
Flags: HW
LayerCount: 2
Fore
SplineSet
256 56 m 1
 229 -36 l 0
 217 -78 173.325195312 -85.8916015625 143 -96 c 0
 192 -170 l 0
 273 -170 292 -100 292 -100 c 1
 468 526 l 1
 388 526 l 1
 289.208984375 175.813476562 l 5
 162 526 l 1
 82 526 l 1
 256 56 l 1
192 -170 m 1048
EndSplineSet
Validated: 9
EndChar

StartChar: z
Encoding: 313 122 57
Width: 550
Flags: HW
HStem: 0 80<185 468> 446 80<82 365>
LayerCount: 2
Fore
SplineSet
185 80 m 13
 468 80 l 5
 468 0 l 21
 82 0 l 29
 82 80 l 21
 365 446 l 13
 82 446 l 5
 82 526 l 21
 468 526 l 29
 468 446 l 21
 185 80 l 13
185 80 m 1045
185 80 m 1029
185 80 m 1029
82 80 m 1029
EndSplineSet
Validated: 1
EndChar

StartChar: zero
Encoding: 713 48 457
Width: 550
Flags: HW
HStem: 2 78<226.613 323.64> 650 80<226.364 323.261>
VStem: 81.7119 80.7119<248.773 546.366> 388 80<183.951 482.008>
LayerCount: 2
Back
SplineSet
56.7109375 730 m 5
 442.7109375 730 l 5
 442.7109375 0 l 5
 56.7109375 0 l 5
 56.7109375 730 l 5
EndSplineSet
Fore
SplineSet
342.513671875 605 m 1
 325.091796875 634.27734375 302.9375 650 275.279296875 650 c 0
 198.279296875 650 162.567382812 530 162.567382812 342 c 0
 162.567382812 306.5 163.53515625 275.056640625 165.681640625 247.404296875 c 1
 342.513671875 605 l 1
385.4375 484 m 1
 207.859375 125.168945312 l 1
 225.28125 95.8916015625 247.774414062 80 275.431640625 80 c 0
 352.431640625 80 388.14453125 200 388.14453125 388 c 0
 388.14453125 423.5 387.5859375 456.34765625 385.4375 484 c 1
274.85546875 730 m 0
 431.431640625 730 468.14453125 576 468.14453125 388 c 0
 468.14453125 200 431.431640625 2 274.85546875 2 c 0
 118.85546875 2 81.85546875 154 81.85546875 342 c 0
 81.85546875 530 118.85546875 730 274.85546875 730 c 0
EndSplineSet
Validated: 1
Substitution2: "InputMono-Regular-Single Substitution lookup 37 subtable" zero.sinf
Substitution2: "InputMono-Regular-Single Substitution lookup 36 subtable" zero.sups
Substitution2: "InputMono-Regular-'ss13' Style Set 13 in Latin lookup 32 subtable" zero.salt_nodot
Substitution2: "InputMono-Regular-'zero' Slashed Zero in Latin lookup 19 subtable" zero.salt_slash
Substitution2: "InputMono-Regular-'dnom' Denominators in Latin lookup 5 subtable" zero.sinf
Substitution2: "InputMono-Regular-'numr' Numerators in Latin lookup 4 subtable" zero.sups
Substitution2: "InputMono-Regular-'sinf' Scientific Inferiors in Latin lookup 3 subtable" zero.sinf
Substitution2: "InputMono-Regular-'sups' Superscript in Latin lookup 2 subtable" zero.sups
EndChar

StartChar: one
Encoding: 714 49 458
Width: 550
Flags: HW
LayerCount: 2
Fore
SplineSet
315 80 m 1
 315 730 l 1
 235 730 l 1
 102 590 l 1
 102 470 l 1
 235 610 l 1
 235 80 l 1
 105 80 l 1
 105 0 l 1
 445 0 l 1
 445 80 l 1
 315 80 l 1
235 80 m 1025
315 80 m 1025
EndSplineSet
Validated: 9
Substitution2: "InputMono-Regular-Single Substitution lookup 37 subtable" one.sinf
Substitution2: "InputMono-Regular-Single Substitution lookup 36 subtable" one.sups
Substitution2: "InputMono-Regular-'dnom' Denominators in Latin lookup 5 subtable" one.sinf
Substitution2: "InputMono-Regular-'numr' Numerators in Latin lookup 4 subtable" one.sups
Substitution2: "InputMono-Regular-'sinf' Scientific Inferiors in Latin lookup 3 subtable" one.sinf
Substitution2: "InputMono-Regular-'sups' Superscript in Latin lookup 2 subtable" one.sups
EndChar

StartChar: two
Encoding: 715 50 459
Width: 550
Flags: HW
HStem: 0 80<185.057 468> 650 80<207.51 343.297>
VStem: 82.0566 90<494 607.737>
LayerCount: 2
Back
SplineSet
339.221679688 80 m 5
 74.2216796875 480 l 5
 23.2216796875 590 82.2216796875 730 239.221679688 730 c 4
 408.221679688 730 442.221679688 643 442.221679688 514 c 5
 352.221679688 514 l 5
 352.221679688 598 342.221679688 650 249.221679688 650 c 4
 167.221679688 650 147.221679688 538 165.221679688 504 c 5
 442.221679688 80 l 13
 339.221679688 80 l 5
EndSplineSet
Fore
SplineSet
82.056640625 80 m 1
 369.056640625 504 l 1
 396 559 374 650 275.056640625 650 c 0
 182.056640625 650 172.056640625 578 172.056640625 494 c 1
 82.056640625 494 l 5
 82.056640625 663 126.056640625 730 285.056640625 730 c 4
 455 730 501 575 450.056640625 480 c 1
 185.056640625 80 l 1
 468 80 l 1
 468 0 l 1
 82 0 l 1
 82.056640625 80 l 1
EndSplineSet
Validated: 33
Substitution2: "InputMono-Regular-Single Substitution lookup 37 subtable" two.sinf
Substitution2: "InputMono-Regular-Single Substitution lookup 36 subtable" two.sups
Substitution2: "InputMono-Regular-'dnom' Denominators in Latin lookup 5 subtable" two.sinf
Substitution2: "InputMono-Regular-'numr' Numerators in Latin lookup 4 subtable" two.sups
Substitution2: "InputMono-Regular-'sinf' Scientific Inferiors in Latin lookup 3 subtable" two.sinf
Substitution2: "InputMono-Regular-'sups' Superscript in Latin lookup 2 subtable" two.sups
EndChar

StartChar: three
Encoding: 716 51 460
Width: 550
Flags: HW
HStem: 0 78<207.373 346.206> 327 80<179 284.69> 652 78<207.373 337.562>
VStem: 82.0107 80.9893<123.697 169 561 606.303> 387 81<115.516 238.592 488.611 605.385>
LayerCount: 2
Fore
SplineSet
183 331 m 0
 183 418 l 0
 285 418 387 426 387 553 c 0
 387 610 377 655 275 655 c 0
 175.930664062 655 163 616 163.331054688 562 c 1
 82 562 l 0
 82 659.579101562 112.188476562 735 275 735 c 0
 442 735 468 652 468 549 c 0
 468 424.427488485 378.73828125 395.765625 319 371 c 1
 378.90625 346.250976562 468 310.677335265 468 186 c 0
 468 83 422 0 275 0 c 0
 132.18848466 0 82 75.4208984375 82 173 c 0
 163.331054688 173 l 1
 163 99 215.931019986 80 275 80 c 0
 337 80 387 105 387 182 c 0
 387 319 282 331 183 331 c 0
EndSplineSet
Substitution2: "InputMono-Regular-Single Substitution lookup 37 subtable" three.sinf
Substitution2: "InputMono-Regular-Single Substitution lookup 36 subtable" three.sups
Substitution2: "InputMono-Regular-'dnom' Denominators in Latin lookup 5 subtable" three.sinf
Substitution2: "InputMono-Regular-'numr' Numerators in Latin lookup 4 subtable" three.sups
Substitution2: "InputMono-Regular-'sinf' Scientific Inferiors in Latin lookup 3 subtable" three.sinf
Substitution2: "InputMono-Regular-'sups' Superscript in Latin lookup 2 subtable" three.sups
EndChar

StartChar: four
Encoding: 717 52 461
Width: 550
Flags: HW
LayerCount: 2
Fore
SplineSet
375 0 m 17
 375 730 l 1
 295 730 l 1
 82 270 l 1
 82 190 l 1
 468 190 l 1
 468 270 l 1
 165.5 270 l 5
 295 560 l 1
 295 0 l 9
 375 0 l 17
EndSplineSet
Validated: 5
Substitution2: "InputMono-Regular-Single Substitution lookup 37 subtable" four.sinf
Substitution2: "InputMono-Regular-Single Substitution lookup 36 subtable" four.sups
Substitution2: "InputMono-Regular-'dnom' Denominators in Latin lookup 5 subtable" four.sinf
Substitution2: "InputMono-Regular-'numr' Numerators in Latin lookup 4 subtable" four.sups
Substitution2: "InputMono-Regular-'sinf' Scientific Inferiors in Latin lookup 3 subtable" four.sinf
Substitution2: "InputMono-Regular-'sups' Superscript in Latin lookup 2 subtable" four.sups
EndChar

StartChar: five
Encoding: 718 53 462
Width: 550
Flags: HW
LayerCount: 2
Fore
SplineSet
82 142.594726562 m 1025
83 369 m 21
 306 369 l 4
 363 369 388 334 388 275 c 0
 387 173 l 0
 387 121.6640625 336.82421875 80 275 80 c 0
 213.17578125 80 163 121.6640625 163 173 c 1
 82 173 l 0
 82 67 190.161132812 0 276 0 c 0
 360.838867188 0 468 67 468 173 c 0
 469 287 l 0
 469 392 391.838867188 449 307 449 c 4
 163 449 l 13
 162 650 l 25
 468 650 l 25
 468 730 l 25
 82 730 l 25
 83 369 l 21
EndSplineSet
Validated: 9
Substitution2: "InputMono-Regular-Single Substitution lookup 37 subtable" five.sinf
Substitution2: "InputMono-Regular-Single Substitution lookup 36 subtable" five.sups
Substitution2: "InputMono-Regular-'dnom' Denominators in Latin lookup 5 subtable" five.sinf
Substitution2: "InputMono-Regular-'numr' Numerators in Latin lookup 4 subtable" five.sups
Substitution2: "InputMono-Regular-'sinf' Scientific Inferiors in Latin lookup 3 subtable" five.sinf
Substitution2: "InputMono-Regular-'sups' Superscript in Latin lookup 2 subtable" five.sups
EndChar

StartChar: six
Encoding: 719 54 463
Width: 550
Flags: HW
LayerCount: 2
Back
SplineSet
443 730 m 5
 332 730 l 5
 83 341 l 5
 191 333 l 5
 443 730 l 5
138 173 m 4
 138 245 l 4
 138 304 192 349 250 349 c 4
 307 349 362 304 362 245 c 4
 362 173 l 4
 362 121.6640625 311.82421875 80 250 80 c 4
 188.17578125 80 138 121.6640625 138 173 c 4
57 173 m 4
 57 67 165.161132812 0 251 0 c 4
 335.838867188 0 443 67 443 173 c 4
 443 257 l 4
 443 362 335.838867188 429 251 429 c 4
 165.161132812 429 57 362 57 257 c 4
 57 173 l 4
EndSplineSet
Fore
SplineSet
82 173 m 0
 82 67 190.161132812 0 276 0 c 0
 360.838867188 0 468 67 468 173 c 0
 468 257 l 0
 468 362 360.838867188 429 276 429 c 0
 238.97718636 429 197.801877335 416.536337242 162.943359375 393.935546875 c 1
 163 545 l 0
 163 604 217 649 275 649 c 0
 332 649 387 604 387 545 c 0
 387 535 l 0
 468 535 l 1
 468 557 l 0
 468 662 360.838867188 729 276 729 c 0
 190.161132812 729 82 662 82 557 c 0
 82 173 l 0
163 173 m 0
 163 245 l 0
 163 304 217 349 275 349 c 0
 332 349 387 304 387 245 c 0
 387 173 l 0
 387 121.6640625 336.82421875 80 275 80 c 0
 213.17578125 80 163 121.6640625 163 173 c 0
EndSplineSet
Validated: 9
Substitution2: "InputMono-Regular-Single Substitution lookup 37 subtable" six.sinf
Substitution2: "InputMono-Regular-Single Substitution lookup 36 subtable" six.sups
Substitution2: "InputMono-Regular-'dnom' Denominators in Latin lookup 5 subtable" six.sinf
Substitution2: "InputMono-Regular-'numr' Numerators in Latin lookup 4 subtable" six.sups
Substitution2: "InputMono-Regular-'sinf' Scientific Inferiors in Latin lookup 3 subtable" six.sinf
Substitution2: "InputMono-Regular-'sups' Superscript in Latin lookup 2 subtable" six.sups
EndChar

StartChar: seven
Encoding: 720 55 464
Width: 550
Flags: HW
HStem: 0 21G<222 331.836> 650 80<82 362>
LayerCount: 2
Fore
SplineSet
132 0 m 21
 352 650 l 1
 82 650 l 1
 82 730 l 1
 468 730 l 1
 228 0 l 13
 132 0 l 21
EndSplineSet
Validated: 1
Substitution2: "InputMono-Regular-Single Substitution lookup 37 subtable" seven.sinf
Substitution2: "InputMono-Regular-Single Substitution lookup 36 subtable" seven.sups
Substitution2: "InputMono-Regular-'dnom' Denominators in Latin lookup 5 subtable" seven.sinf
Substitution2: "InputMono-Regular-'numr' Numerators in Latin lookup 4 subtable" seven.sups
Substitution2: "InputMono-Regular-'sinf' Scientific Inferiors in Latin lookup 3 subtable" seven.sinf
Substitution2: "InputMono-Regular-'sups' Superscript in Latin lookup 2 subtable" seven.sups
EndChar

StartChar: eight
Encoding: 721 56 465
Width: 550
Flags: HW
LayerCount: 2
Fore
SplineSet
163 523 m 0
 163 545 l 0
 163 604 217 649 275 649 c 0
 332 649 387 604 387 545 c 0
 387 523 l 0
 387 471.6640625 336.82421875 430 275 430 c 0
 213.17578125 430 163 471.6640625 163 523 c 0
82 523 m 0
 82 417 189.161132812 350 275 350 c 4
 359.838867188 350 468 417 468 523 c 0
 468 557 l 0
 468 662 360.838867188 729 276 729 c 0
 190.161132812 729 82 662 82 557 c 0
 82 523 l 0
163 173 m 0
 163 245 l 0
 163 304 217 349 275 349 c 0
 332 349 387 304 387 245 c 0
 387 173 l 0
 387 121.6640625 336.82421875 80 275 80 c 0
 213.17578125 80 163 121.6640625 163 173 c 0
82 173 m 0
 82 67 190.161132812 0 276 0 c 0
 360.838867188 0 468 67 468 173 c 0
 468 257 l 0
 468 362 359.838867188 429 275 429 c 4
 189.161132812 429 82 362 82 257 c 0
 82 173 l 0
EndSplineSet
Validated: 5
Substitution2: "InputMono-Regular-Single Substitution lookup 37 subtable" eight.sinf
Substitution2: "InputMono-Regular-Single Substitution lookup 36 subtable" eight.sups
Substitution2: "InputMono-Regular-'dnom' Denominators in Latin lookup 5 subtable" eight.sinf
Substitution2: "InputMono-Regular-'numr' Numerators in Latin lookup 4 subtable" eight.sups
Substitution2: "InputMono-Regular-'sinf' Scientific Inferiors in Latin lookup 3 subtable" eight.sinf
Substitution2: "InputMono-Regular-'sups' Superscript in Latin lookup 2 subtable" eight.sups
EndChar

StartChar: nine
Encoding: 722 57 466
Width: 550
Flags: HW
LayerCount: 2
Fore
SplineSet
397 326 m 5
 223 0 l 5
 132 0 l 5
 284 301 l 5
 199.161132812 301 82 368 82 473 c 4
 82 557 l 4
 82 663 189.161132812 730 274 730 c 4
 359.838867188 730 468 663 468 557 c 4
 468 513 l 4
 468.0078125 441.470703125 433 388 397 326 c 5
387 557 m 4
 387 608.3359375 336.82421875 650 275 650 c 4
 213.17578125 650 163 608.3359375 163 557 c 4
 163 485 l 4
 163 426 218 381 275 381 c 4
 333 381 387 426 387 485 c 4
 387 557 l 4
EndSplineSet
Validated: 33
Substitution2: "InputMono-Regular-Single Substitution lookup 37 subtable" nine.sinf
Substitution2: "InputMono-Regular-Single Substitution lookup 36 subtable" nine.sups
Substitution2: "InputMono-Regular-'dnom' Denominators in Latin lookup 5 subtable" nine.sinf
Substitution2: "InputMono-Regular-'numr' Numerators in Latin lookup 4 subtable" nine.sups
Substitution2: "InputMono-Regular-'sinf' Scientific Inferiors in Latin lookup 3 subtable" nine.sinf
Substitution2: "InputMono-Regular-'sups' Superscript in Latin lookup 2 subtable" nine.sups
EndChar

StartChar: hyphen
Encoding: 730 8209 474
AltUni2: 00002d.ffffffff.0 0000ad.ffffffff.0 002010.ffffffff.0
Width: 550
Flags: W
HStem: 240 80
LayerCount: 2
Fore
SplineSet
478 320 m 29
 72 320 l 29
 72 240 l 29
 478 240 l 29
 478 320 l 29
EndSplineSet
EndChar

StartChar: endash
Encoding: 731 8211 475
Width: 550
Flags: HW
HStem: 230 110
LayerCount: 2
Fore
SplineSet
508 340 m 29
 42 340 l 29
 42 230 l 29
 508 230 l 29
 508 340 l 29
EndSplineSet
Validated: 9
EndChar

StartChar: emdash
Encoding: 732 8212 476
Width: 550
Flags: HW
HStem: 230 110
LayerCount: 2
Fore
SplineSet
528 340 m 29
 22 340 l 29
 22 230 l 29
 528 230 l 29
 528 340 l 29
EndSplineSet
Validated: 9
EndChar

StartChar: horizontalbar
Encoding: 733 8213 477
Width: 550
Flags: HW
HStem: 230 110
LayerCount: 2
Fore
SplineSet
550 340 m 25
 0 340 l 25
 0 230 l 25
 550 230 l 25
 550 340 l 25
EndSplineSet
Validated: 9
EndChar

StartChar: parenleft
Encoding: 734 40 478
Width: 550
Flags: HW
HStem: -120 90<321.717 420.5> 640 90<321.717 420.5>
VStem: 129.5 90<126.022 483.978>
LayerCount: 2
Fore
SplineSet
384.5 -30 m 5
 420.5 -30 l 5
 420.5 -120 l 5
 374.5 -120 l 5
 203.01953125 -120 129.5 83.51953125 129.5 305 c 4
 129.5 526.48046875 203.01953125 730 374.5 730 c 5
 420.5 730 l 5
 420.5 640 l 5
 384.5 640 l 5
 262.700195312 640 219.5 456.799804688 219.5 305 c 4
 219.5 153.200195312 262.700195312 -30 384.5 -30 c 5
EndSplineSet
Validated: 1
EndChar

StartChar: parenright
Encoding: 735 41 479
Width: 550
Flags: HW
HStem: -120 90<165.5 228.283> 640 90<165.5 228.283>
VStem: 330.5 90<126.022 483.978>
LayerCount: 2
Fore
SplineSet
165.5 -30 m 5
 129.5 -30 l 5
 129.5 -120 l 5
 175.5 -120 l 5
 346.98046875 -120 420.5 83.51953125 420.5 305 c 4
 420.5 526.48046875 346.98046875 730 175.5 730 c 5
 129.5 730 l 5
 129.5 640 l 5
 165.5 640 l 5
 287.299804688 640 330.5 456.799804688 330.5 305 c 4
 330.5 153.200195312 287.299804688 -30 165.5 -30 c 5
EndSplineSet
Validated: 9
EndChar

StartChar: braceleft
Encoding: 736 123 480
Width: 550
Flags: HW
HStem: -120 90<323.71 450.5> 640 90<323.71 450.5>
LayerCount: 2
Fore
SplineSet
424.5 -30 m 5
 450.5 -30 l 5
 450.5 -120 l 5
 404.5 -120 l 5
 1.158203125 -120 263.918945312 75.2197265625 259.802734375 229 c 4
 259.53125 239.15234375 99.5 294.48828125 99.5 305 c 4
 99.5 315.51171875 259.53125 370.84765625 259.802734375 381 c 4
 263.918945312 534.780273438 1.158203125 730 404.5 730 c 5
 450.5 730 l 5
 450.5 640 l 5
 424.5 640 l 5
 236.280273438 640 309.697265625 577.477539062 375.51953125 374 c 4
 381.41796875 355.766601562 299.5 320.250976562 299.5 305 c 4
 299.5 289.749023438 381.41796875 254.233398438 375.51953125 236 c 4
 309.697265625 32.5224609375 236.280273438 -30 424.5 -30 c 5
EndSplineSet
Validated: 33
Substitution2: "InputMono-Regular-'ss12' Style Set 12 in Latin lookup 31 subtable" braceleft.salt_straight
EndChar

StartChar: braceright
Encoding: 737 125 481
Width: 550
Flags: HW
HStem: -120 90<573.5 674.29> 640 90<573.5 674.29>
LayerCount: 2
Fore
SplineSet
125.5 -30 m 5
 99.5 -30 l 5
 99.5 -120 l 5
 145.5 -120 l 5
 548.841796875 -120 286.081054688 75.2197265625 290.197265625 229 c 4
 290.46875 239.15234375 450.5 294.48828125 450.5 305 c 4
 450.5 315.51171875 290.46875 370.84765625 290.197265625 381 c 4
 286.081054688 534.780273438 548.841796875 730 145.5 730 c 5
 99.5 730 l 5
 99.5 640 l 5
 125.5 640 l 5
 313.719726562 640 240.302734375 577.477539062 174.48046875 374 c 4
 168.58203125 355.766601562 250.5 320.250976562 250.5 305 c 4
 250.5 289.749023438 168.58203125 254.233398438 174.48046875 236 c 4
 240.302734375 32.5224609375 313.719726562 -30 125.5 -30 c 5
EndSplineSet
Validated: 41
Substitution2: "InputMono-Regular-'ss12' Style Set 12 in Latin lookup 31 subtable" braceright.salt_straight
EndChar

StartChar: numbersign
Encoding: 738 35 482
Width: 550
Flags: HW
HStem: 196 75<72 478> 459 75<72 478>
LayerCount: 2
Fore
SplineSet
478 534 m 1
 478 459 l 1
 72 459 l 1
 72 534 l 1
 478 534 l 1
478 271 m 1
 478 196 l 1
 72 196 l 1
 72 271 l 1
 478 271 l 1
478 534 m 1
 478 459 l 1
 72 459 l 1
 72 534 l 1
 478 534 l 1
417 680 m 1
 379 50 l 5
 303 50 l 5
 341 680 l 1
 417 680 l 1
417 680 m 1
 379 50 l 5
 303 50 l 5
 341 680 l 1
 417 680 l 1
237 680 m 1
 199 50 l 5
 123 50 l 5
 161 680 l 1
 237 680 l 1
237 680 m 1
 199 50 l 5
 123 50 l 5
 161 680 l 1
 237 680 l 1
EndSplineSet
Validated: 5
EndChar

StartChar: percent
Encoding: 739 37 483
Width: 550
Flags: HW
HStem: 55 74<370.153 451.723> 225 76<370.153 451.847> 429 75<98.1533 179.847> 600 75<98.1533 179.847>
VStem: 16 75<511.153 592.847> 187 75<511.153 592.847> 288 75<136.653 216.886> 459 75<136.653 216.886>
LayerCount: 2
Fore
SplineSet
343 177 m 0
 343 145 369 119 401 119 c 0
 432 119 459 145 459 177 c 0
 459 209 433 235 401 235 c 0
 369 235 343 209 343 177 c 0
91 552 m 0
 91 520 117 494 149 494 c 0
 181 494 207 520 207 552 c 0
 207 581 181 610 149 610 c 0
 117 610 91 581 91 552 c 0
272 178 m 0
 272 254 325 311 401 311 c 0
 477 311 534 254 534 178 c 0
 534 102 477 45 401 45 c 0
 325 45 272 102 272 178 c 0
16 552 m 0
 16 628 73 685 149 685 c 0
 225 685 282 628 282 552 c 0
 282 476 225 419 149 419 c 0
 73 419 16 476 16 552 c 0
504 540 m 1
 154 200 l 1
 46 200 l 1
 396 540 l 1
 504 540 l 1
504 540 m 1
 154 200 l 1
 46 200 l 1
 396 540 l 1
 504 540 l 1
EndSplineSet
Validated: 5
EndChar

StartChar: quotesingle
Encoding: 741 39 485
Width: 550
Flags: HW
HStem: 447 284
LayerCount: 2
Fore
SplineSet
353.5 731 m 21
 182.5 731 l 5
 176.5 447 l 5
 312.5 447 l 5
 353.5 731 l 21
EndSplineSet
Validated: 9
EndChar

StartChar: quotedbl
Encoding: 742 34 486
Width: 550
Flags: HW
HStem: 447 284
VStem: 96.5 101<447 495.488> 311.5 101<447 495.488>
LayerCount: 2
Fore
SplineSet
453.5 731 m 21
 317.5 731 l 5
 311.5 447 l 5
 412.5 447 l 5
 453.5 731 l 21
238.5 731 m 21
 102.5 731 l 5
 96.5 447 l 5
 197.5 447 l 5
 238.5 731 l 21
EndSplineSet
Validated: 9
EndChar

StartChar: quoteleft
Encoding: 743 8216 487
AltUni2: 0002bb.ffffffff.0
Width: 550
Flags: HW
HStem: 496 304
LayerCount: 2
Fore
SplineSet
443.5 800 m 21
 222.5 800 l 5
 106.5 496 l 5
 222.5 496 l 5
 443.5 800 l 21
EndSplineSet
Validated: 9
EndChar

StartChar: quoteright
Encoding: 744 8217 488
Width: 550
Flags: HW
HStem: 496 304
LayerCount: 2
Fore
SplineSet
106.5 496 m 21
 327.5 496 l 5
 443.5 800 l 5
 327.5 800 l 5
 106.5 496 l 21
EndSplineSet
Validated: 9
EndChar

StartChar: quotedblleft
Encoding: 745 8220 489
Width: 550
Flags: HW
HStem: 496 304
LayerCount: 2
Fore
SplineSet
513.5 800 m 21
 322.5 800 l 5
 256.5 496 l 5
 332.5 496 l 5
 513.5 800 l 21
293.5 800 m 21
 102.5 800 l 5
 36.5 496 l 5
 112.5 496 l 5
 293.5 800 l 21
EndSplineSet
Validated: 9
EndChar

StartChar: quotedblright
Encoding: 746 8221 490
Width: 550
Flags: HW
HStem: 496 304
LayerCount: 2
Fore
SplineSet
36.5 496 m 21
 227.5 496 l 5
 293.5 800 l 5
 217.5 800 l 5
 36.5 496 l 21
256.5 496 m 21
 447.5 496 l 5
 513.5 800 l 5
 437.5 800 l 5
 256.5 496 l 21
EndSplineSet
Validated: 9
EndChar

StartChar: quotereversed
Encoding: 747 8219 491
Width: 550
Flags: HW
HStem: 447 284<233.5 363.5>
VStem: 192.5 177
LayerCount: 2
Fore
SplineSet
192.5 731 m 21
 363.5 731 l 5
 369.5 447 l 5
 233.5 447 l 5
 192.5 731 l 21
EndSplineSet
Validated: 1
EndChar

StartChar: quotesinglbase
Encoding: 748 8218 492
Width: 550
Flags: HW
HStem: 1 284
LayerCount: 2
Fore
SplineSet
363.5 285 m 21
 192.5 285 l 5
 186.5 1 l 5
 322.5 1 l 5
 363.5 285 l 21
EndSplineSet
Validated: 9
EndChar

StartChar: quotedblbase
Encoding: 749 8222 493
Width: 550
Flags: HW
HStem: 0 284
VStem: 96.5 101<0 48.4878> 311.5 101<0 48.4878>
LayerCount: 2
Fore
SplineSet
453.5 284 m 17
 317.5 284 l 1
 311.5 0 l 1
 412.5 0 l 1
 453.5 284 l 17
238.5 284 m 17
 102.5 284 l 1
 96.5 0 l 1
 197.5 0 l 1
 238.5 284 l 17
EndSplineSet
Validated: 9
EndChar

StartChar: guilsinglleft
Encoding: 750 8249 494
Width: 550
Flags: HW
LayerCount: 2
Fore
SplineSet
438 130 m 5
 242 362 l 5
 438 598 l 5
 438 730 l 5
 112 362 l 29
 438 0 l 5
 438 130 l 5
EndSplineSet
Validated: 9
EndChar

StartChar: guilsinglright
Encoding: 751 8250 495
Width: 550
Flags: HW
LayerCount: 2
Fore
SplineSet
112 130 m 1
 308 362 l 1
 112 598 l 1
 112 730 l 1
 438 362 l 25
 112 0 l 1
 112 130 l 1
EndSplineSet
Validated: 1
EndChar

StartChar: guillemotleft
Encoding: 752 171 496
Width: 550
Flags: HW
LayerCount: 2
Fore
SplineSet
222.200195312 366 m 29
 417.799804688 730 l 5
 477.799804688 692 l 5
 300.200195312 366 l 5
 477.799804688 36 l 5
 417.799804688 -2 l 5
 222.200195312 366 l 29
72.2001953125 366 m 29
 267.799804688 730 l 5
 327.799804688 692 l 5
 150.200195312 366 l 5
 327.799804688 36 l 5
 267.799804688 -2 l 5
 72.2001953125 366 l 29
EndSplineSet
Validated: 1
EndChar

StartChar: guillemotright
Encoding: 753 187 497
Width: 550
Flags: HW
LayerCount: 2
Fore
SplineSet
327.799804688 366 m 29
 132.200195312 730 l 5
 72.2001953125 692 l 5
 249.799804688 366 l 5
 72.2001953125 36 l 5
 132.200195312 -2 l 5
 327.799804688 366 l 29
477.799804688 366 m 29
 282.200195312 730 l 5
 222.200195312 692 l 5
 399.799804688 366 l 5
 222.200195312 36 l 5
 282.200195312 -2 l 5
 477.799804688 366 l 29
EndSplineSet
Validated: 9
EndChar

StartChar: asterisk
Encoding: 754 42 498
Width: 550
Flags: HW
VStem: 235 80<264 394.149 549.364 680>
LayerCount: 2
Fore
SplineSet
235 424.149414062 m 1
 128.884765625 341.930664062 l 1
 83.173828125 398.640625 l 1
 214.91796875 501.756835938 l 1
 83.173828125 604.874023438 l 1
 128.8828125 661.583984375 l 1
 235 579.364257812 l 1
 235 730 l 1
 315 730 l 1
 315 579.364257812 l 1
 421.1171875 661.583984375 l 1
 466.826171875 604.874023438 l 1
 335.08203125 501.756835938 l 1
 466.826171875 398.640625 l 1
 421.115234375 341.930664062 l 1
 315 424.149414062 l 1
 315 274 l 1
 235 274 l 1
 235 424.149414062 l 1
EndSplineSet
Validated: 1
Substitution2: "InputMono-Regular-'ss20' Style Set 20 in Latin lookup 33 subtable" multiply
Substitution2: "InputMono-Regular-'ss11' Style Set 11 in Latin lookup 30 subtable" asterisk.salt_height
EndChar

StartChar: period
Encoding: 757 46 501
Width: 550
Flags: HW
HStem: 0 218<212.858 337.142>
VStem: 166 218<46.8582 171.142>
LayerCount: 2
Fore
SplineSet
166 109 m 4
 166 167 217 218 275 218 c 4
 333 218 384 167 384 109 c 4
 384 51 333 0 275 0 c 4
 217 0 166 51 166 109 c 4
EndSplineSet
Validated: 1
EndChar

StartChar: comma
Encoding: 758 44 502
Width: 550
Flags: HW
HStem: -31 304
LayerCount: 2
Fore
SplineSet
443.5 273 m 21
 222.5 273 l 5
 106.5 -31 l 5
 222.5 -31 l 5
 443.5 273 l 21
EndSplineSet
Validated: 9
EndChar

StartChar: colon
Encoding: 759 58 503
Width: 550
Flags: HW
HStem: 40 198<214.588 335.412> 440 198<214.588 335.412>
VStem: 176 198<78.5877 199.412 478.588 599.412>
LayerCount: 2
Fore
SplineSet
176 139 m 4
 176 192 222 238 275 238 c 4
 328 238 374 192 374 139 c 4
 374 86 328 40 275 40 c 4
 222 40 176 86 176 139 c 4
176 519 m 4
 176 572 222 618 275 618 c 4
 328 618 374 572 374 519 c 4
 374 466 328 420 275 420 c 4
 222 420 176 466 176 519 c 4
EndSplineSet
Validated: 1
EndChar

StartChar: semicolon
Encoding: 760 59 504
Width: 550
Flags: HW
HStem: 440 198<214.588 335.412>
VStem: 176 198<291.451 312 478.588 599.412>
LayerCount: 2
Fore
SplineSet
371.5 302 m 17
 179.5 302 l 1
 154.5 -30 l 1
 257.5 -30 l 1
 371.5 302 l 17
176 519 m 0
 176 572 222 618 275 618 c 0
 328 618 374 572 374 519 c 0
 374 466 328 420 275 420 c 0
 222 420 176 466 176 519 c 0
EndSplineSet
Validated: 9
EndChar

StartChar: ellipsis
Encoding: 761 8230 505
Width: 550
Flags: HW
HStem: 10 178<62.2273 157.773 230.118 319.882 392.227 487.773>
VStem: 51 118<19.967 178.033> 218 114<20.9567 177.043> 381 118<19.967 178.033>
CounterMasks: 1 70
LayerCount: 2
Fore
SplineSet
381 99 m 0
 381 152 387 188 440 188 c 0
 493 188 499 152 499 99 c 0
 499 46 493 10 440 10 c 0
 387 10 381 46 381 99 c 0
218 99 m 0
 218 152 227 188 275 188 c 0
 323 188 332 152 332 99 c 0
 332 46 323 10 275 10 c 0
 227 10 218 46 218 99 c 0
51 99 m 0
 51 152 57 188 110 188 c 0
 163 188 169 152 169 99 c 0
 169 46 163 10 110 10 c 0
 57 10 51 46 51 99 c 0
EndSplineSet
Validated: 1
EndChar

StartChar: exclam
Encoding: 762 33 506
Width: 550
Flags: W
HStem: 0 125<211.712 338.288> 710 20G<194.919 355>
VStem: 190 170<21.7491 103.798> 234.919 80.0811<189 283.675>
LayerCount: 2
Fore
SplineSet
190 63 m 4xe0
 190 95 227 125 275 125 c 4
 323 125 360 95 360 63 c 4
 360 31 323 0 275 0 c 4
 227 0 190 31 190 63 c 4xe0
234.918945312 189 m 21xd0
 194.918945312 730 l 13
 355 730 l 21
 315 189 l 13
 234.918945312 189 l 21xd0
EndSplineSet
Validated: 1
EndChar

StartChar: exclamdown
Encoding: 763 161 507
Width: 550
Flags: HW
HStem: 605 125<211.712 338.288>
VStem: 190 170<626.202 708.251> 244.919 60.0811<465.26 541>
LayerCount: 2
Fore
SplineSet
190 667 m 0xc0
 190 635 227 605 275 605 c 0
 323 605 360 635 360 667 c 0
 360 699 323 730 275 730 c 0
 227 730 190 699 190 667 c 0xc0
244.918945312 541 m 17xa0
 194.918945312 0 l 9
 355 0 l 17
 305 541 l 13
 244.918945312 541 l 17xa0
EndSplineSet
Validated: 9
EndChar

StartChar: exclamdbl
Encoding: 764 8252 508
Width: 550
Flags: HW
HStem: 0 105<99.002 224.998 325.002 450.998> 710 20G<81.9189 242 307.919 468>
VStem: 87 150<12.8128 92.6404> 121.919 80.0811<179 275.425> 313 150<12.8128 92.6404> 347.919 80.0811<179 275.425>
LayerCount: 2
Fore
SplineSet
313 53 m 0xc8
 313 85 340 105 388 105 c 0
 436 105 463 85 463 53 c 0
 463 21 436 0 388 0 c 0
 340 0 313 21 313 53 c 0xc8
347.918945312 179 m 17xc4
 307.918945312 730 l 9
 468 730 l 17
 428 179 l 9
 347.918945312 179 l 17xc4
87 53 m 0xe0
 87 85 114 105 162 105 c 0
 210 105 237 85 237 53 c 0
 237 21 210 0 162 0 c 0
 114 0 87 21 87 53 c 0xe0
121.918945312 179 m 17xd0
 81.9189453125 730 l 9
 242 730 l 17
 202 179 l 9
 121.918945312 179 l 17xd0
EndSplineSet
Validated: 1
EndChar

StartChar: question
Encoding: 765 63 509
Width: 550
Flags: HW
LayerCount: 2
Fore
SplineSet
228.999023438 311 m 5xf6
 229 360 259.17578125 401 325 401 c 4
 363.82421875 401 377 426.6640625 377 483 c 4
 377 546 l 4
 377 605 332 640 275 640 c 4
 217 640 173 605 173 546 c 4
 173 491 l 13
 82 491 l 21
 82 558 l 4
 82 663 190.161132812 730 276 730 c 4
 360.838867188 730 468 663 468 558 c 4
 468 464 l 4
 468 356 394.838867188 311 319.999023438 311 c 5
 319.999023438 191 l 5
 228.999023438 191 l 5
 228.999023438 311 l 5xf6
190 63 m 4xfa
 190 95 227 125 275 125 c 4
 323 125 360 95 360 63 c 4
 360 31 323 0 275 0 c 4
 227 0 190 31 190 63 c 4xfa
EndSplineSet
Validated: 1
EndChar

StartChar: questiondown
Encoding: 766 191 510
Width: 550
Flags: HW
LayerCount: 2
Fore
SplineSet
321.000976562 419 m 5xf6
 321 370 290.82421875 329 225 329 c 4
 186.17578125 329 173 303.3359375 173 247 c 4
 173 184 l 4
 173 125 218 90 275 90 c 4
 333 90 377 125 377 184 c 4
 377 239 l 13
 468 239 l 21
 468 172 l 4
 468 67 359.838867188 0 274 0 c 4
 189.161132812 0 82 67 82 172 c 4
 82 266 l 4
 82 374 155.161132812 419 230.000976562 419 c 5
 230.000976562 539 l 5
 321.000976562 539 l 5
 321.000976562 419 l 5xf6
360 667 m 4xfa
 360 635 323 605 275 605 c 4
 227 605 190 635 190 667 c 4
 190 699 227 730 275 730 c 4
 323 730 360 699 360 667 c 4xfa
EndSplineSet
Validated: 1
EndChar

StartChar: slash
Encoding: 767 47 511
Width: 550
Flags: HW
LayerCount: 2
Fore
SplineSet
364 750 m 5
 82 -20 l 5
 186 -20 l 5
 468 750 l 5
 364 750 l 5
EndSplineSet
Substitution2: "InputMono-Regular-Single Substitution lookup 36 subtable" fraction
Substitution2: "InputMono-Regular-'ss20' Style Set 20 in Latin lookup 33 subtable" divide
Substitution2: "InputMono-Regular-'dnom' Denominators in Latin lookup 5 subtable" fraction
Substitution2: "InputMono-Regular-'numr' Numerators in Latin lookup 4 subtable" fraction
EndChar

StartChar: fraction
Encoding: 768 8725 512
AltUni2: 002044.ffffffff.0
Width: 550
Flags: HW
LayerCount: 2
Fore
SplineSet
389 730 m 5
 82 0 l 1
 161 0 l 1
 468 730 l 1
 389 730 l 5
EndSplineSet
Validated: 9
EndChar

StartChar: bar
Encoding: 769 124 513
Width: 550
Flags: HW
HStem: 0 21G<221.919 328> 710 20G<221.919 328>
VStem: 221.919 106.081<0 304 427 730>
LayerCount: 2
Fore
SplineSet
328 304 m 17
 328 0 l 1
 221.918945312 0 l 1
 221.918945312 304 l 9
 328 304 l 17
221.918945312 427 m 21
 221.918945312 730 l 13
 328 730 l 21
 328 427 l 13
 221.918945312 427 l 21
EndSplineSet
Validated: 1
EndChar

StartChar: brokenbar
Encoding: 770 166 514
Width: 550
Flags: HW
VStem: 224.919 100.081<40 232 499 690>
LayerCount: 2
Fore
SplineSet
325 342 m 17
 325 40 l 1
 224.918945312 40 l 1
 224.918945312 232 l 13
 325 342 l 17
224.918945312 389 m 17
 224.918945312 690 l 9
 325 690 l 17
 325 499 l 9
 224.918945312 389 l 17
EndSplineSet
Validated: 1
EndChar

StartChar: at
Encoding: 771 64 515
Width: 550
Flags: HW
HStem: 0 90<192.643 368.714> 200 90<284.31 408.196> 419 90<290.444 400.567> 640 90<197.221 338.372>
VStem: 42 80<180.555 539.165> 192 81<305.401 343 355 400.377> 417 81<302.845 343 355 405.471>
LayerCount: 2
Fore
SplineSet
273 343 m 4
 273 355 l 4
 273 404 317 419 345 419 c 4
 372 419 417 414 417 355 c 4
 417 343 l 4
 417 291.6640625 376.82421875 290 345 290 c 4
 313.17578125 290 273 301.6640625 273 343 c 4
498 343 m 5
 498 367 l 5
 496 650 378.754296601 730 274 730 c 4
 125 730 42 607 42 358 c 4
 42 109 125 0 274 0 c 4
 343 0 426 18 475 106 c 5
 402 146 l 5
 369 105 351.189313786 90 274 90 c 4
 165 90 122 159 122 358 c 4
 122 557 165 640 274 640 c 4
 332.877041304 640 386 591 401 506 c 5
 401 506 371.985351562 509 356 509 c 4
 280.161132812 509 192 462 192 367 c 4
 192 343 l 4
 192 247 280.161132812 200 356 200 c 4
 403.403320312 200 498 207 498 343 c 5
EndSplineSet
Validated: 9
EndChar

StartChar: ampersand
Encoding: 772 38 516
Width: 550
Flags: HW
HStem: 2 78<203.865 320.892> 652 78<216.439 321.561>
VStem: 82 81<123.227 257.175> 118 78<499.254 633.243> 342 78<498.949 632.198> 393 75<177.047 264>
LayerCount: 2
Fore
SplineSet
468 264 m 17xe4
 468 209 456.163085938 169.919921875 436 129 c 0
 402 60 362 2 256 2 c 0
 160 2 82 90 82 186 c 0
 82 305 162 364 203 402 c 4
 250.599609375 446.1171875 337.391601562 463 342 570 c 1xe8
 342 623 315 652 269 652 c 0
 223 652 196 623 196 570 c 0
 196 534 215 507 243 449 c 1
 468 0 l 1xd4
 378 0 l 1
 162 439 l 1
 136 488 118 539.983398438 118 578 c 0
 118 669 178 730 269 730 c 0
 360 730 420 669 420 581 c 0xd8
 420 427.748046875 297 377 239 322 c 4
 200.643554688 285.627929688 163 245 163 187 c 0
 163 134 206 80 259 80 c 0
 327 80 353.599712774 137.719368103 366 165 c 0
 381 198 393 223 393 264 c 9
 468 264 l 17xe4
EndSplineSet
Validated: 5
EndChar

StartChar: paragraph
Encoding: 774 182 518
Width: 550
Flags: HW
LayerCount: 2
Fore
SplineSet
278 730 m 1
 320 730 l 5
 320 338 l 5
 278 338 l 1
 169.807617188 338 82 425.807617188 82 534 c 0
 82 642.192382812 169.807617188 730 278 730 c 1
468 730 m 1
 468 0 l 1
 418 0 l 1
 418 650 l 1
 348 650 l 5
 348 0 l 5
 298 0 l 5
 298 730 l 5
 468 730 l 1
EndSplineSet
Validated: 5
EndChar

StartChar: periodcentered
Encoding: 777 8729 521
AltUni2: 0000b7.ffffffff.0
Width: 550
VWidth: 1080
Flags: HW
HStem: 230 218<212.858 337.142>
VStem: 166 218<276.858 401.142>
LayerCount: 2
Fore
SplineSet
166 339 m 4
 166 397 217 448 275 448 c 4
 333 448 384 397 384 339 c 4
 384 281 333 230 275 230 c 4
 217 230 166 281 166 339 c 4
EndSplineSet
Validated: 1
EndChar

StartChar: bullet
Encoding: 778 8226 522
Width: 550
VWidth: 1080
Flags: HW
HStem: 240 198<198.273 351.727>
VStem: 166 218<272.861 405.139>
LayerCount: 2
Fore
SplineSet
166 339 m 0
 166 397 197 438 275 438 c 0
 353 438 384 397 384 339 c 0
 384 281 353 240 275 240 c 0
 197 240 166 281 166 339 c 0
EndSplineSet
Validated: 1
EndChar

StartChar: anoteleia
Encoding: 779 903 523
Width: 550
VWidth: 1080
Flags: HW
HStem: 275 128<226.747 321.253>
VStem: 210 128<291.747 386.253>
LayerCount: 2
Fore
SplineSet
210 339 m 0
 210 374 239 403 274 403 c 0
 309 403 338 374 338 339 c 0
 338 304 309 275 274 275 c 0
 239 275 210 304 210 339 c 0
EndSplineSet
Validated: 1
EndChar

StartChar: plus
Encoding: 784 43 528
Width: 550
VWidth: 970
Flags: HW
HStem: -30 21G<225 325> 200 100<72 225 325 478> 476 20G<225 325>
VStem: 225 100<-30 200 300 496>
LayerCount: 2
Fore
SplineSet
225 280 m 5
 72 280 l 5
 72 380 l 5
 225 380 l 5
 225 576 l 5
 325 576 l 5
 325 380 l 5
 478 380 l 5
 478 280 l 5
 325 280 l 5
 325 50 l 5
 225 50 l 5
 225 280 l 5
EndSplineSet
EndChar

StartChar: minus
Encoding: 785 8722 529
Width: 550
VWidth: 970
Flags: W
HStem: 280 100
LayerCount: 2
Fore
SplineSet
478 380 m 29
 72 380 l 29
 72 280 l 29
 478 280 l 29
 478 380 l 29
EndSplineSet
EndChar

StartChar: plusminus
Encoding: 786 177 530
Width: 550
VWidth: 1050
Flags: HW
HStem: 290 100<72 225 325 478> 556 20G<225 325>
VStem: 225 100<190 290 390 576>
LayerCount: 2
Fore
SplineSet
478 140 m 29
 72 140 l 29
 72 50 l 29
 478 50 l 29
 478 140 l 29
225 290 m 1
 72 290 l 1
 72 390 l 1
 225 390 l 1
 225 576 l 1
 325 576 l 1
 325 390 l 1
 478 390 l 1
 478 290 l 1
 325 290 l 1
 325 190 l 1
 225 190 l 1
 225 290 l 1
EndSplineSet
EndChar

StartChar: divide
Encoding: 787 247 531
Width: 550
VWidth: 1050
Flags: HW
HStem: 113 105<212.002 337.998> 442 105<212.002 337.998>
VStem: 200 150<125.813 205.64 454.813 534.64>
LayerCount: 2
Fore
SplineSet
200 166 m 4
 200 198 227 218 275 218 c 4
 323 218 350 198 350 166 c 4
 350 134 323 113 275 113 c 4
 227 113 200 134 200 166 c 4
200 495 m 4
 200 527 227 547 275 547 c 4
 323 547 350 527 350 495 c 4
 350 463 323 442 275 442 c 4
 227 442 200 463 200 495 c 4
478 380 m 29
 72 380 l 29
 72 280 l 29
 478 280 l 29
 478 380 l 29
EndSplineSet
EndChar

StartChar: multiply
Encoding: 788 215 532
Width: 550
VWidth: 1050
Flags: HW
LayerCount: 2
Fore
SplineSet
275 260.724609375 m 1
 400.188476562 135.188476562 l 1
 471 206 l 1
 346 331 l 1
 469.25 455.485351562 l 1
 398.438476562 526.296875 l 1
 275 403 l 1
 151.561523438 526.296875 l 1
 80.75 455.485351562 l 1
 204.353515625 331.5390625 l 1
 79 206 l 1
 149.811523438 135.188476562 l 1
 275 260.724609375 l 1
EndSplineSet
EndChar

StartChar: equal
Encoding: 789 61 533
Width: 550
VWidth: 1050
Flags: W
LayerCount: 2
Fore
SplineSet
478 270 m 29
 72 270 l 29
 72 170 l 29
 478 170 l 29
 478 270 l 29
478 490 m 29
 72 490 l 29
 72 390 l 29
 478 390 l 29
 478 490 l 29
EndSplineSet
EndChar

StartChar: less
Encoding: 790 60 534
Width: 550
VWidth: 1050
Flags: W
LayerCount: 2
Fore
SplineSet
438 170 m 5
 262 310 l 5
 438 454 l 5
 438 576 l 5
 112 310 l 29
 438 50 l 5
 438 170 l 5
EndSplineSet
EndChar

StartChar: greater
Encoding: 791 62 535
Width: 550
VWidth: 1050
Flags: HW
LayerCount: 2
Fore
SplineSet
112 50 m 5
 438 310 l 5
 112 576 l 5
 112 454 l 5
 288 310 l 5
 112 170 l 5
 112 50 l 5
EndSplineSet
EndChar

StartChar: lessequal
Encoding: 792 8804 536
Width: 550
VWidth: 1050
Flags: HW
HStem: 556 20G<412.531 438>
LayerCount: 2
Fore
SplineSet
478 140 m 29
 72 140 l 29
 72 50 l 29
 478 50 l 29
 478 140 l 29
281.51953125 190 m 21
 112 320 l 13
 438 576 l 5
 438 454 l 5
 262 320 l 5
 438 190 l 13
 281.51953125 190 l 21
281.51953125 190 m 1029
EndSplineSet
LCarets2: 1 0
Ligature2: "InputMono-Regular-'ss20' Style Set 20 in Latin lookup 34 subtable" less equal
EndChar

StartChar: greaterequal
Encoding: 793 8805 537
Width: 550
VWidth: 1050
Flags: HW
HStem: 50 90<72 478>
LayerCount: 2
Fore
SplineSet
72 140 m 29
 478 140 l 29
 478 50 l 29
 72 50 l 29
 72 140 l 29
268.48046875 190 m 21
 438 320 l 13
 112 576 l 5
 112 454 l 5
 288 320 l 5
 112 190 l 13
 268.48046875 190 l 21
268.48046875 190 m 1029
EndSplineSet
LCarets2: 1 0
Ligature2: "InputMono-Regular-'ss20' Style Set 20 in Latin lookup 34 subtable" greater equal
EndChar

StartChar: approxequal
Encoding: 794 8776 538
Width: 550
VWidth: 1050
Flags: HW
LayerCount: 2
Back
SplineSet
475 230 m 5
 322 230 l 5
 322 330 l 5
 475 330 l 5
 475 526 l 5
 575 526 l 5
 575 330 l 5
 728 330 l 5
 728 230 l 5
 575 230 l 5
 575 0 l 5
 475 0 l 5
 475 230 l 5
EndSplineSet
Fore
SplineSet
313 253 m 0
 313 291 253 304 185 304 c 0
 100 304 59 277.674804688 59 181 c 0
 59 150 l 1
 133 150 l 1
 133.713867188 172 l 0
 135 203 142.015625 234 185 234 c 0
 217.692382812 234 237 213 237 194 c 0
 237 157 297 129 365 129 c 0
 450 129 491 155.325195312 491 252 c 0
 491 283 l 1
 417 283 l 1
 416.286132812 261 l 0
 415 239 407.984375 209 365 209 c 0
 332.307617188 209 313 229 313 253 c 0
313 443 m 0
 313 481 253 504 185 504 c 0
 100 504 59 467.674804688 59 371 c 0
 59 340 l 1
 133 340 l 1
 133.713867188 362 l 0
 135 393 142.015625 424 185 424 c 0
 217.692382812 424 237 403 237 384 c 0
 237 347 297 329 365 329 c 0
 450 329 491 345.325195312 491 442 c 0
 491 473 l 1
 417 473 l 1
 416.286132812 451 l 0
 415 429 407.984375 399 365 399 c 0
 332.307617188 399 313 419 313 443 c 0
EndSplineSet
EndChar

StartChar: notequal
Encoding: 795 8800 539
Width: 550
VWidth: 1050
Flags: HW
LayerCount: 2
Fore
SplineSet
326 577 m 1
 126 87 l 5
 224 87 l 5
 424 577 l 1
 326 577 l 1
478 270 m 25
 72 270 l 25
 72 170 l 25
 478 170 l 25
 478 270 l 25
478 490 m 25
 72 490 l 25
 72 390 l 25
 478 390 l 25
 478 490 l 25
EndSplineSet
LCarets2: 1 0
Ligature2: "InputMono-Regular-'ss20' Style Set 20 in Latin lookup 34 subtable" exclam equal
EndChar

StartChar: arrowleft
Encoding: 798 8592 542
Width: 550
VWidth: 1080
Flags: HW
LayerCount: 2
Fore
SplineSet
262 270 m 5
 514 270 l 5
 514 414 l 5
 262 414 l 5
 262 576 l 5
 36 340 l 29
 262 110 l 5
 262 270 l 5
EndSplineSet
EndChar

StartChar: arrowup
Encoding: 799 8593 543
Width: 550
VWidth: 1080
Flags: HW
LayerCount: 2
Fore
SplineSet
348 306 m 5
 348 558 l 5
 204 558 l 5
 204 306 l 5
 42 306 l 5
 278 80 l 29
 508 306 l 5
 348 306 l 5
EndSplineSet
EndChar

StartChar: arrowright
Encoding: 800 8594 544
Width: 550
VWidth: 1080
Flags: HW
HStem: 270 144<-14 238>
LayerCount: 2
Fore
SplineSet
288 270 m 5
 36 270 l 5
 36 414 l 5
 288 414 l 5
 288 576 l 5
 514 340 l 29
 288 110 l 5
 288 270 l 5
EndSplineSet
EndChar

StartChar: arrowdown
Encoding: 801 8595 545
Width: 550
VWidth: 1080
Flags: HW
LayerCount: 2
Fore
SplineSet
202 332 m 5
 202 80 l 5
 346 80 l 5
 346 332 l 5
 508 332 l 5
 272 558 l 29
 42 332 l 5
 202 332 l 5
EndSplineSet
EndChar

StartChar: arrowboth
Encoding: 802 8596 546
Width: 550
VWidth: 1080
Flags: HW
HStem: 270 144<223 327>
LayerCount: 2
Fore
SplineSet
213 270 m 1
 213 108 l 1
 27 344 l 25
 213 574 l 1
 213 414 l 1
 337 414 l 1
 337 576 l 1
 523 340 l 25
 337 110 l 1
 337 270 l 1
 213 270 l 1
EndSplineSet
EndChar

StartChar: dollar
Encoding: 815 36 559
Width: 550
Flags: HW
HStem: 0 21G<236 314> 47 75<204.587 354.561> 602 75<200.109 344.564> 710 20G<236 314>
VStem: 82 72<436.501 556.477> 82 64<181.394 243> 236 78<0 730> 396 72<163.238 284.091> 413 63<505.444 533.84>
LayerCount: 2
Fore
SplineSet
468 243 m 5xfb
 468 128 412.674804688 47 275 47 c 0
 138.325195312 47 82 138 82 243 c 1
 146 258 l 4
 146 175.015625 203.999023438 122 274 122 c 0
 345.000976562 122 396 155.015625 396 238 c 5xf7
 395 368 82 277 82 481 c 4
 82 586 137.325195312 677 275 677 c 0
 360.55859375 677 456 623 476 508 c 1
 413 485 l 1xfa80
 399 552 338 602 276 602 c 0
 204.999023438 602 154 558.984375 154 486 c 4
 154 344 468 437 468 243 c 5xfb
236 730 m 1
 314 730 l 1
 314 0 l 1
 236 0 l 1
 236 730 l 1
EndSplineSet
Validated: 5
EndChar

StartChar: asciitilde
Encoding: 825 126 569
Width: 550
VWidth: 1050
Flags: HW
HStem: 219 80<319.953 409.51> 364 80<140.727 230.335>
VStem: 59 74<291 356.494> 237 76<308.274 356.354> 416.286 74.7139<302.743 372>
LayerCount: 2
Fore
SplineSet
313 343 m 4
 313 391 283 444 185 444 c 4
 100 444 59 407.674804688 59 291 c 4
 59 230 l 5
 133 230 l 5
 133.713867188 292 l 4
 135 353 142.015625 364 185 364 c 4
 217.692382812 364 237 343 237 324 c 4
 237 277 267 219 365 219 c 4
 450 219 491 255.325195312 491 372 c 4
 491 433 l 5
 417 433 l 5
 416.286132812 371 l 4
 415 309 407.984375 299 365 299 c 4
 332.307617188 299 313 319 313 343 c 4
EndSplineSet
EndChar

StartChar: ibreve.salt_serifs
Encoding: 1122 57387 866
Width: 550
VWidth: 1080
Flags: HW
HStem: 280 124<-44 298>
LayerCount: 2
Fore
SplineSet
323 280 m 1
 31 280 l 5
 31 404 l 5
 323 404 l 1
 323 566 l 1
 519 340 l 25
 323 120 l 1
 323 280 l 1
EndSplineSet
Validated: 1
EndChar

StartChar: iogonek.salt_serifs
Encoding: 1123 57388 867
Width: 550
VWidth: 1080
Flags: HW
HStem: 80 21G<249.551 295.061>
VStem: 212 124<276 618>
LayerCount: 2
Fore
SplineSet
212 276 m 1
 212 568 l 5
 336 568 l 5
 336 276 l 1
 498 276 l 1
 272 80 l 25
 52 276 l 1
 212 276 l 1
EndSplineSet
Validated: 1
EndChar

StartChar: ij.salt_serifs
Encoding: 1125 57389 869
Width: 550
VWidth: 1080
Flags: HW
LayerCount: 2
Fore
SplineSet
227 280 m 1
 519 280 l 5
 519 404 l 5
 227 404 l 1
 227 566 l 1
 31 340 l 25
 227 120 l 1
 227 280 l 1
EndSplineSet
Validated: 9
EndChar

StartChar: icyrillic.salt_serifs
Encoding: 1126 57390 870
Width: 550
VWidth: 1080
Flags: HW
HStem: 80 21G<214 338>
VStem: 214 124<80 422>
LayerCount: 2
Fore
SplineSet
338 372 m 1
 338 80 l 1
 214 80 l 1
 214 372 l 1
 52 372 l 1
 278 568 l 25
 498 372 l 1
 338 372 l 1
EndSplineSet
Validated: 1
EndChar

StartChar: NameMe.1178
Encoding: 1178 -1 922
Width: 1100
VWidth: 1050
Flags: HW
LayerCount: 2
Fore
SplineSet
1028 270 m 29
 72 270 l 29
 72 170 l 29
 1028 170 l 29
 1028 270 l 29
598 473 m 4
 598 571 428 584 310 584 c 4
 215 584 74 527.674804688 74 411 c 4
 74 320 l 5
 168 320 l 5
 168.713867188 392 l 4
 170 463 237.015625 494 310 494 c 4
 382.692382812 494 502 493 502 434 c 4
 502 337 672 319 790 319 c 4
 885 319 1026 375.325195312 1026 492 c 4
 1026 583 l 5
 932 583 l 5
 931.286132812 511 l 4
 930 439 862.984375 409 790 409 c 4
 717.307617188 409 598 409 598 473 c 4
EndSplineSet
EndChar

StartChar: NameMe.1179
Encoding: 1179 -1 923
Width: 550
Flags: HW
LayerCount: 2
Fore
SplineSet
468 449 m 21
 468 449 404 526 298 526 c 4
 212 526 162 490 162 490 c 5
 162 526 l 5
 82 526 l 21
 82 -0.212890625 l 5
 162 0 l 5
 162 342 l 4
 161.845703125 402 218 446 293 446 c 4
 361 446 414 389 414 389 c 13
 468 449 l 21
82 -0.212890625 m 1029
  Spiro
    82 -0.212891 {
    0 0 z
  EndSpiro
EndSplineSet
Validated: 41
EndChar

StartChar: NameMe.1180
Encoding: 1180 -1 924
Width: 550
Flags: HW
LayerCount: 2
Fore
SplineSet
363 167 m 4
 363 138 382 119 411 119 c 4
 439 119 459 138 459 167 c 4
 459 196 440 215 411 215 c 4
 382 215 363 196 363 167 c 4
91 562 m 4
 91 533 110 514 139 514 c 4
 168 514 187 533 187 562 c 4
 187 591 168 610 139 610 c 4
 110 610 91 591 91 562 c 4
292 168 m 4
 292 239 340 291 411 291 c 4
 482 291 534 239 534 168 c 4
 534 97 482 45 411 45 c 4
 340 45 292 97 292 168 c 4
16 562 m 4
 16 633 68 685 139 685 c 4
 210 685 262 633 262 562 c 4
 262 491 210 439 139 439 c 4
 68 439 16 491 16 562 c 4
474 710 m 5
 169 20 l 5
 76 20 l 5
 381 710 l 5
 474 710 l 5
474 710 m 5
 169 20 l 5
 76 20 l 5
 381 710 l 5
 474 710 l 5
EndSplineSet
Validated: 5
EndChar

StartChar: NameMe.1181
Encoding: 1181 -1 925
Width: 550
Flags: HW
LayerCount: 2
Fore
SplineSet
468 170 m 4
 468 65 354.838867188 0 270 0 c 4
 164.2109375 0 82.0087890625 89 82.0107421875 169 c 4
 163 169 l 4
 163 148 196.745117188 78 269 78 c 4
 326 78 387 109.750536483 387 168 c 4
 387 261 291 332 179 332 c 4
 179 412 l 4
 289 412 387 472 387 548 c 4
 387 608.876925021 326 652 269 652 c 4
 196.745117188 652 163 582 163 561 c 4
 82.0107421875 561 l 4
 82.0087890625 641 164.2109375 730 270 730 c 4
 354.838867188 730 468 662 468 560 c 7
 468 404 336 370 336 370 c 4
 336 370 468 319 468 170 c 4
EndSplineSet
EndChar

StartChar: liga_exclam_equal
Encoding: 1182 -1 926
Width: 1100
VWidth: 1050
Flags: HW
LayerCount: 2
Fore
SplineSet
694 680 m 5
 302 -20 l 5
 406 -20 l 5
 798 680 l 5
 694 680 l 5
1028 270 m 25
 72 270 l 25
 72 170 l 25
 1028 170 l 25
 1028 270 l 25
1028 490 m 25
 72 490 l 25
 72 390 l 25
 1028 390 l 25
 1028 490 l 25
EndSplineSet
Ligature2: "liga standard lookup-1" exclam equal
LCarets2: 1 0
EndChar

StartChar: liga_asciitilde_equal
Encoding: 1183 -1 927
Width: 1100
VWidth: 1050
Flags: HW
LayerCount: 2
Fore
SplineSet
1028 270 m 25
 72 270 l 25
 72 170 l 25
 1028 170 l 25
 1028 270 l 25
601 493 m 0
 601 541 571 604 355 604 c 0
 165 604 93 557.674804688 93 441 c 0
 93 370 l 1
 201 370 l 1
 202.427734375 442 l 0
 205 503 249.03125 514 355 514 c 0
 440.384765625 514 489 493 489 474 c 0
 489 427 519 359 735 359 c 0
 925 359 997 405.325195312 997 522 c 0
 997 593 l 1
 889 593 l 1
 887.572265625 521 l 0
 885 459 840.96875 449 735 449 c 0
 649.615234375 449 601 469 601 493 c 0
EndSplineSet
LCarets2: 1 0
Ligature2: "liga standard lookup-1" asciitilde equal
EndChar

StartChar: liga_hyphen_greater
Encoding: 1184 -1 928
Width: 1100
Flags: HW
LayerCount: 2
Fore
SplineSet
702 40 m 5
 1028 300 l 5
 702 566 l 5
 702 444 l 5
 878 300 l 5
 702 160 l 5
 702 40 l 5
888 345 m 29
 72 345 l 29
 72 255 l 29
 888 255 l 29
 888 345 l 29
EndSplineSet
Ligature2: "liga standard lookup-1" hyphen greater
LCarets2: 1 0
EndChar

StartChar: liga_less_hyphen_greater
Encoding: 1185 -1 929
Width: 1650
Flags: HW
LayerCount: 2
Fore
SplineSet
395 40 m 1
 69 300 l 1
 395 566 l 1
 395 444 l 1
 219 300 l 1
 395 160 l 1
 395 40 l 1
1443 255 m 17
 209 255 l 9
 209 345 l 17
 1443 345 l 9
 1443 255 l 17
1257 40 m 1
 1583 300 l 1
 1257 566 l 1
 1257 444 l 1
 1433 300 l 1
 1257 160 l 1
 1257 40 l 1
EndSplineSet
Ligature2: "liga standard lookup-1" less hyphen greater
LCarets2: 2 0 0
EndChar

StartChar: liga_less_hyphen
Encoding: 1186 -1 930
Width: 1100
Flags: HW
LayerCount: 2
Fore
SplineSet
398 40 m 5
 72 300 l 5
 398 566 l 5
 398 444 l 5
 222 300 l 5
 398 160 l 5
 398 40 l 5
212 345 m 29
 1028 345 l 29
 1028 255 l 29
 212 255 l 29
 212 345 l 29
EndSplineSet
Ligature2: "liga standard lookup-1" less hyphen
LCarets2: 1 0
EndChar

StartChar: liga_less_exclam_hyphen
Encoding: 1187 -1 931
Width: 1650
Flags: HW
HStem: 255 90<63 711 803 1439>
LayerCount: 2
Fore
SplineSet
560 63 m 0xe0
 560 95 597 125 645 125 c 0
 693 125 730 95 730 63 c 0
 730 31 693 0 645 0 c 0
 597 0 560 31 560 63 c 0xe0
604.918945312 189 m 17xd0
 564.918945312 670 l 9
 725 670 l 17
 685 189 l 9
 604.918945312 189 l 17xd0
393 40 m 1
 67 300 l 1
 393 566 l 1
 393 444 l 1
 217 300 l 1
 393 160 l 1
 393 40 l 1
1157 345 m 17
 1583 345 l 9
 1583 255 l 17
 1157 255 l 9
 1157 345 l 17
507 255 m 5
 207 255 l 1
 207 345 l 1
 507 345 l 5
 507 255 l 5
783 345 m 17
 1025 345 l 9
 1025 255 l 1
 783 255 l 9
 783 345 l 17
EndSplineSet
Ligature2: "liga standard lookup-1" less exclam hyphen
LCarets2: 2 0 0
EndChar

StartChar: liga_slash_slash
Encoding: 1188 -1 932
Width: 1100
Flags: HW
LayerCount: 2
Fore
SplineSet
824 750 m 5
 512 -20 l 5
 626 -20 l 5
 938 750 l 5
 824 750 l 5
464 750 m 5
 162 -20 l 5
 276 -20 l 5
 578 750 l 5
 464 750 l 5
EndSplineSet
LCarets2: 1 0
Ligature2: "liga standard lookup-1" slash slash
EndChar

StartChar: liga_equal_equal
Encoding: 1189 -1 933
Width: 1100
VWidth: 1050
Flags: HW
LayerCount: 2
Fore
SplineSet
1028 270 m 29
 72 270 l 29
 72 170 l 29
 1028 170 l 29
 1028 270 l 29
1028 490 m 29
 72 490 l 29
 72 390 l 29
 1028 390 l 29
 1028 490 l 29
EndSplineSet
LCarets2: 1 0
Ligature2: "liga standard lookup-1" equal equal
EndChar

StartChar: NameMe.1190
Encoding: 1190 -1 934
Width: 1650
VWidth: 1050
Flags: HW
LayerCount: 2
Fore
SplineSet
1578 390 m 29
 72 390 l 29
 72 300 l 29
 1578 300 l 29
 1578 390 l 29
1578 195 m 29
 72 195 l 29
 72 105 l 29
 1578 105 l 29
 1578 195 l 29
1578 585 m 29
 72 585 l 29
 72 495 l 29
 1578 495 l 29
 1578 585 l 29
EndSplineSet
EndChar

StartChar: liga_exclam_equal_equal
Encoding: 1191 -1 935
Width: 1650
VWidth: 1050
Flags: HWO
LayerCount: 2
Fore
SplineSet
1578 390 m 25
 72 390 l 25
 72 300 l 25
 1578 300 l 25
 1578 390 l 25
1578 205 m 25
 72 205 l 25
 72 115 l 25
 1578 115 l 25
 1578 205 l 25
1578 575 m 25
 72 575 l 25
 72 485 l 25
 1578 485 l 25
 1578 575 l 25
969 700 m 1
 577 -40 l 1
 681 -40 l 1
 1073 700 l 1
 969 700 l 1
EndSplineSet
LCarets2: 2 0 0
Ligature2: "liga standard lookup-1" exclam equal equal
EndChar

StartChar: liga_less_equal
Encoding: 1192 -1 936
Width: 1100
VWidth: 1050
Flags: HW
LayerCount: 2
Fore
SplineSet
835.629882812 117.400390625 m 25
 264.370117188 117.400390625 l 25
 264.370117188 18.5 l 25
 835.629882812 18.5 l 25
 835.629882812 117.400390625 l 25
557.888671875 217.900390625 m 21
 352.770507812 375.200195312 l 13
 747.229492188 684.959960938 l 5
 747.229492188 547.340820312 l 5
 524.270507812 375.200195312 l 5
 737.229492188 217.900390625 l 13
 557.888671875 217.900390625 l 21
557.888671875 217.900390625 m 1029
EndSplineSet
LCarets2: 1 0
Ligature2: "liga standard lookup-1" less equal
EndChar

StartChar: liga_greater_equal
Encoding: 1193 -1 937
Width: 1100
VWidth: 1050
Flags: HW
LayerCount: 2
Fore
SplineSet
264.370117188 117.400390625 m 25
 835.629882812 117.400390625 l 25
 835.629882812 18.5 l 25
 264.370117188 18.5 l 25
 264.370117188 117.400390625 l 25
542.111328125 217.900390625 m 17
 747.229492188 375.200195312 l 9
 352.770507812 684.959960938 l 1
 352.770507812 547.340820312 l 1
 575.729492188 375.200195312 l 1
 362.770507812 217.900390625 l 9
 542.111328125 217.900390625 l 17
542.111328125 217.900390625 m 1025
EndSplineSet
LCarets2: 1 0
Ligature2: "liga standard lookup-1" greater equal
EndChar

StartChar: liga_colon_slash_slash
Encoding: 1194 -1 938
Width: 1650
Flags: HW
LayerCount: 2
Fore
SplineSet
221.5 189 m 0
 221.5 242 267.5 288 320.5 288 c 0
 373.5 288 419.5 242 419.5 189 c 0
 419.5 136 373.5 90 320.5 90 c 0
 267.5 90 221.5 136 221.5 189 c 0
371.5 569 m 0
 371.5 622 417.5 668 470.5 668 c 0
 523.5 668 569.5 622 569.5 569 c 0
 569.5 516 523.5 470 470.5 470 c 0
 417.5 470 371.5 516 371.5 569 c 0
1314.5 750 m 1
 1002.5 -20 l 1
 1116.5 -20 l 1
 1428.5 750 l 1
 1314.5 750 l 1
894.5 750 m 1
 592.5 -20 l 1
 706.5 -20 l 1
 1008.5 750 l 1
 894.5 750 l 1
EndSplineSet
LCarets2: 2 0 0
Ligature2: "liga standard lookup-1" colon slash slash
EndChar
